<svg xmlns="http://www.w3.org/2000/svg" xmlns:xlink="http://www.w3.org/1999/xlink" viewBox="0 0 1152 648"><g id="Layer_1" data-name="Layer 1"><path d="M159,380.93h29.39a2.48,2.48,0,0,0,2.49-2.49V371L207,379.68a2.49,2.49,0,0,0,3.68-2.19V342a2.48,2.48,0,0,0-1.22-2.14,2.51,2.51,0,0,0-2.46-.06l-16.11,8.67V341a2.49,2.49,0,0,0-2.49-2.49h-4A22.33,22.33,0,1,0,148.54,316a16.83,16.83,0,1,0-24.92,22.59h-2.27a2.49,2.49,0,0,0-2.49,2.49v11.31h-6.31a2.49,2.49,0,0,0-2.49,2.49v9.8a2.48,2.48,0,0,0,2.49,2.49h6.31v11.31a2.48,2.48,0,0,0,2.49,2.49h29.39m-31.88-18.78H115v-4.82h3.82Zm51.39-58.3A17.35,17.35,0,1,1,152.9,321.2,17.37,17.37,0,0,1,170.25,303.85Zm-19,29a22.51,22.51,0,0,0,5,5.67h-8.69A16.9,16.9,0,0,0,151.23,332.88Zm-15.66-18.05a11.86,11.86,0,1,1-11.86,11.86A11.87,11.87,0,0,1,135.57,314.83Zm50.29,37.81V376h-62V343.53h62Zm19.78,20.68-14.8-8V354.13l14.8-8Z"/><path d="M135.57,319.12a7.57,7.57,0,1,0,7.57,7.57A7.58,7.58,0,0,0,135.57,319.12Zm0,10.65a3.08,3.08,0,1,1,3.08-3.08A3.08,3.08,0,0,1,135.57,329.77Z" style="fill:#ed3424"/><path d="M170.25,310.33a10.87,10.87,0,1,0,10.87,10.87A10.88,10.88,0,0,0,170.25,310.33Zm0,16.75a5.89,5.89,0,1,1,5.89-5.88A5.89,5.89,0,0,1,170.25,327.08Z" style="fill:#ed3424"/><path d="M162.22,350.78H135.13a2.37,2.37,0,0,0-2.37,2.37v13.19a2.37,2.37,0,0,0,2.37,2.37h27.09a2.37,2.37,0,0,0,2.36-2.37V353.15A2.37,2.37,0,0,0,162.22,350.78ZM159.85,364H137.49v-8.46h22.36V364Z"/><circle cx="175.28" cy="355.64" r="2.49"/><circle cx="175.28" cy="363.85" r="2.49"/><path d="M1014.66,531.29h-1.12v-1a3.82,3.82,0,0,0-3.81-3.81h-3.46a3.77,3.77,0,0,0-2.15.66,3.83,3.83,0,0,0-2.16-.66H998.5a3.77,3.77,0,0,0-2.15.66,3.82,3.82,0,0,0-2.15-.66h-3.47a3.82,3.82,0,0,0-3.81,3.81v1h-4.44v-1a3.82,3.82,0,0,0-3.81-3.81H975.2a3.83,3.83,0,0,1-4.3,0h-3.46a3.75,3.75,0,0,0-2.11.64,3.7,3.7,0,0,0-2.1-.64H944.14a3.83,3.83,0,0,1-4.3,0h-3.46a3.82,3.82,0,0,0-3.81,3.81v1h-1.11a2.86,2.86,0,0,0-2.87,2.85v6a2.86,2.86,0,0,0,2.85,2.86H945a1.71,1.71,0,1,0,0-3.42H932v-4.87h82.07v4.87H952.77a1.71,1.71,0,0,0,0,3.42h61.89a2.85,2.85,0,0,0,2.85-2.86v-6A2.85,2.85,0,0,0,1014.66,531.29Zm-74.42,0H936v-1a.39.39,0,0,1,.39-.4h3.47a.39.39,0,0,1,.39.4Zm23.38,0H943.75v-1a.39.39,0,0,1,.39-.4h19.09a.39.39,0,0,1,.39.4v1Zm7.67,0H967v-1a.39.39,0,0,1,.4-.4h3.46a.39.39,0,0,1,.39.4v1Zm7.77,0h-4.25v-1a.39.39,0,0,1,.39-.4h3.47a.39.39,0,0,1,.39.4v1Zm15.53,0h-4.25v-1a.39.39,0,0,1,.39-.4h3.47a.39.39,0,0,1,.39.4Zm7.77,0H998.1v-1a.4.4,0,0,1,.4-.4H1002a.39.39,0,0,1,.4.4v1Zm7.75,0h-4.25v-1a.39.39,0,0,1,.39-.4h3.47a.39.39,0,0,1,.39.4Z"/><path d="M1037.45,525.69h-10a7.82,7.82,0,0,0-7.81,7.8v6.66a2.86,2.86,0,0,0,2.86,2.86h20a2.86,2.86,0,0,0,2.85-2.86v-6.66A7.82,7.82,0,0,0,1037.45,525.69Zm4.39,13.9H1023v-6.1a4.4,4.4,0,0,1,4.39-4.39h10a4.4,4.4,0,0,1,4.39,4.39v6.1Z"/><path d="M945.69,506.47h26.63v4.32h-3.86a5.38,5.38,0,0,0-5.39,5.38v3a2.63,2.63,0,0,0,2.63,2.63h25a1.71,1.71,0,1,0,0-3.42H966.49v-2.2a2,2,0,0,1,2-2h36.8a2,2,0,0,1,2,2v2.2h-8.49a1.71,1.71,0,0,0,0,3.42H1008a2.63,2.63,0,0,0,2.63-2.63v-3a5.38,5.38,0,0,0-5.38-5.38h-3.86v-4.32H1028a6.42,6.42,0,0,0,6.42-6.41l.11-67.41a6.43,6.43,0,0,0-6.42-6.42H945.69a6.43,6.43,0,0,0-6.42,6.42V500A6.44,6.44,0,0,0,945.69,506.47ZM998,510.79H975.73v-4.32H998Zm-55.19-78.14a3,3,0,0,1,3-3H1028a3,3,0,0,1,3,3v9.65H942.79Zm-.1,13.07H1031v46H942.69Zm0,49.39H1031V500a3,3,0,0,1-3,3H945.69a3,3,0,0,1-3-3Z"/><path d="M949.81,431.54a4.39,4.39,0,1,0,4.39,4.39A4.4,4.4,0,0,0,949.81,431.54Zm0,6.33a1.94,1.94,0,1,1,1.94-1.94A1.94,1.94,0,0,1,949.81,437.87Z" style="fill:#ff3030"/><path d="M960.16,431.54a4.39,4.39,0,1,0,4.39,4.39A4.4,4.4,0,0,0,960.16,431.54Zm0,6.33a1.94,1.94,0,1,1,1.94-1.94A1.94,1.94,0,0,1,960.16,437.87Z"/><path d="M970.51,431.54a4.39,4.39,0,1,0,4.39,4.39A4.4,4.4,0,0,0,970.51,431.54Zm0,6.33a1.94,1.94,0,1,1,1.94-1.94A1.94,1.94,0,0,1,970.51,437.87Z"/><path d="M101,409.05v-7.28H97.15v7.28H92.9V391.38h4.25v7.17H101v-7.17h4.25v17.67Z"/><path d="M108.57,409.05v-3.3h3.9v-7.3h-3.65V395.4h7.8v10.35h3.75v3.3Zm5.93-15-2.88-2.9,2.88-2.87,2.87,2.87Z"/><path d="M128.72,414.57a18,18,0,0,1-5.17-.75l.65-3.27a20.24,20.24,0,0,0,4,.52c2,0,2.45-.25,2.45-2.22v-.4a2.66,2.66,0,0,1-2.12.82c-2.75,0-5.63-.75-5.63-7,0-4.68,2.7-7.22,6.83-7.22a32.53,32.53,0,0,1,5.07.57v13.52C134.77,413.17,131.72,414.57,128.72,414.57Zm1.88-15.95a3.17,3.17,0,0,0-.93-.12c-2.37,0-2.65,1.45-2.65,3.8,0,2.95.5,3.8,2.35,3.8a3,3,0,0,0,1.23-.23Z"/><path d="M145.77,409.05v-8.23c0-1.87-.17-2.2-1.32-2.2a3,3,0,0,0-2,.75v9.68h-4.18V390.2h4.18v6.57a4.21,4.21,0,0,1,3.45-1.77c4.27,0,4.07,2.38,4.07,5.47v8.58Z"/><path d="M155.35,403.55v-3.33h7.45v3.33Z"/><path d="M173.37,409.32a14.46,14.46,0,0,1-5.35-.7l.85-3.37a15.19,15.19,0,0,0,4.43.57c1.8,0,2.37-.77,2.37-1.72,0-2.88-7.42-1.88-7.42-8.1,0-3.4,3-4.77,6.1-4.77a11.49,11.49,0,0,1,4.85.92l-1.28,3.15a9.46,9.46,0,0,0-3.42-.65c-1.78,0-2.1.58-2.1,1.32,0,2.63,7.57,2.35,7.57,8C180,407.82,177,409.32,173.37,409.32Z"/><path d="M188.72,409.25c-.62,0-.67,0-1.17-.05v5.35h-4.18V395.4h4.15v1.22a4.44,4.44,0,0,1,3-1.54c3.08,0,4.55,1.69,4.55,6.52C195.12,407.3,192.7,409.25,188.72,409.25Zm2.2-7.53c0-2.45-.37-3.1-1.82-3.1a3,3,0,0,0-1.58.4v7a5,5,0,0,0,1.28.1c2.15,0,2.1-1.8,2.1-4.35Z"/><path d="M204.87,409.27c-4.12,0-6.65-1.4-6.65-6.85s2.18-7.34,6.3-7.34c4.3,0,5.35,3.19,5.35,7.32v1.5h-7.5c.15,1.77,1.3,1.87,2.78,1.87a28.49,28.49,0,0,0,4.25-.32l.49,3.17A18.53,18.53,0,0,1,204.87,409.27Zm-.67-11c-1.18,0-1.6.77-1.7,2.8h3.12C205.62,399,205.22,398.25,204.2,398.25Z"/><path d="M219.87,409.27c-4.12,0-6.65-1.4-6.65-6.85s2.18-7.34,6.3-7.34c4.3,0,5.35,3.19,5.35,7.32v1.5h-7.5c.15,1.77,1.3,1.87,2.78,1.87a28.49,28.49,0,0,0,4.25-.32l.49,3.17A18.53,18.53,0,0,1,219.87,409.27Zm-.67-11c-1.18,0-1.6.77-1.7,2.8h3.12C220.62,399,220.22,398.25,219.2,398.25Z"/><path d="M235.6,409.05v-1.23a3.73,3.73,0,0,1-2.85,1.4c-2.45,0-4.88-1.3-4.88-7.22,0-4.67,2.28-7,6.43-7a3.77,3.77,0,0,1,1.3.15V390.2h4.17v18.85Zm0-10.78a4.67,4.67,0,0,0-1.23-.17c-2.1,0-2.35,1.6-2.35,4,0,3,.6,3.7,1.8,3.7a4.16,4.16,0,0,0,1.78-.42Z"/><path d="M100.75,439.3c-6.13,0-7.55-3.18-7.55-9,0-6.14,1.55-9.14,7.45-9.14a7.74,7.74,0,0,1,4.3,1l-1.13,3.08a7.85,7.85,0,0,0-3.12-.6c-2.7,0-3.18,1.7-3.18,5.39s.45,5.68,3.68,5.68a11.16,11.16,0,0,0,3.15-.35l.8,3.25A11.15,11.15,0,0,1,100.75,439.3Z"/><path d="M120.32,439.15c-1.85.1-4.17,0-4.62-1.43a3.8,3.8,0,0,1-3,1.5c-3,0-4.62-1.3-4.62-4,0-3.45,3.15-4,5.85-4h1.4V430c0-1.2-.78-1.4-2.48-1.4a12.51,12.51,0,0,0-3.35.5l-.82-3.13a14.32,14.32,0,0,1,4.77-.89c2.9,0,5.93.17,5.93,4.12v6.22c0,.45.32.55,1.12.58Zm-5-5.68-1,0c-2.15.1-2.13.83-2.13,1.43s.35,1.07,1.13,1.07a5.2,5.2,0,0,0,2-.42Z"/><path d="M132.2,439.05v-9.73c0-1.22,0-1.65-.78-1.65a1.14,1.14,0,0,0-.77.3,10.12,10.12,0,0,1,0,1.23v9.85h-3.28v-10c0-.9,0-1.4-.72-1.4a1,1,0,0,0-.75.45v10.93h-3.3V425.4H126v1.3a2.72,2.72,0,0,1,2.45-1.6,2,2,0,0,1,2,1.7,2.8,2.8,0,0,1,2.42-1.7c2.25,0,2.63,1,2.63,3.67v10.28Z"/><path d="M144.87,439.27c-4.12,0-6.65-1.4-6.65-6.85s2.18-7.34,6.3-7.34c4.3,0,5.35,3.19,5.35,7.32v1.5h-7.5c.15,1.77,1.3,1.87,2.78,1.87a28.49,28.49,0,0,0,4.25-.32l.5,3.17A18.66,18.66,0,0,1,144.87,439.27Zm-.67-11c-1.18,0-1.6.77-1.7,2.8h3.12C145.62,429,145.22,428.25,144.2,428.25Z"/><path d="M165.27,428.9a8.08,8.08,0,0,0-1.87-.15,4.36,4.36,0,0,0-3,1.05v5.95h4.5v3.3H153.12v-3.3h3.1v-7.3h-3.05V425.4h7.23v1.82a4.51,4.51,0,0,1,4-2.1,4.35,4.35,0,0,1,1.57.21Z"/><path d="M180.32,439.15c-1.85.1-4.17,0-4.62-1.43a3.8,3.8,0,0,1-3,1.5c-3,0-4.62-1.3-4.62-4,0-3.45,3.15-4,5.85-4h1.4V430c0-1.2-.78-1.4-2.48-1.4a12.51,12.51,0,0,0-3.35.5l-.82-3.13a14.32,14.32,0,0,1,4.77-.89c2.9,0,5.93.17,5.93,4.12v6.22c0,.45.32.55,1.12.58Zm-5-5.68-1.05,0c-2.15.1-2.13.83-2.13,1.43s.35,1.07,1.13,1.07a5.2,5.2,0,0,0,2-.42Z"/><path d="M188.27,439.3a18.15,18.15,0,0,1-5-.53l.45-3.15a30.66,30.66,0,0,0,4.12.33c2.1,0,2.85-.33,2.85-.9,0-1.73-7.37-.25-7.37-5.68,0-2.95,3.27-4.27,6.25-4.27a13.7,13.7,0,0,1,4.6.73l-.7,3a15.83,15.83,0,0,0-3.78-.45c-1.42,0-2.2.4-2.2.9,0,1.85,7.33.75,7.33,5.57C194.85,438.47,190.57,439.3,188.27,439.3Z"/><polyline points="157.97 452.05 157.97 527.6 199.4 569.02 661.98 569.02" style="fill:none;stroke:#000;stroke-miterlimit:10;stroke-width:6px"/><path d="M991.34,375.32H913.21c-.33,0-.33,0-.33-.32V347.89a.15.15,0,0,1,.21,0,10.14,10.14,0,0,1,.26,1.46,14.63,14.63,0,0,0,2.5,5.86,24.53,24.53,0,0,0,7.36,6.51,50.79,50.79,0,0,0,9.93,4.58,129.69,129.69,0,0,0,21.72,5.24c4,.66,7.94,1.17,11.92,1.61,3,.33,6,.61,8.94.89,1.77.17,3.53.28,5.3.41,2.21.17,4.43.27,6.64.44,1.1.08,2.2.08,3.3.2a.73.73,0,0,1,.35.09A.09.09,0,0,1,991.34,375.32Z" style="fill:#fff"/><path d="M913,347.9h-.14v-2.05H913a.32.32,0,0,1,.17.26,8.13,8.13,0,0,1,0,1.56A.3.3,0,0,1,913,347.9Z" style="fill:#b3a9b2"/><path d="M991.34,375.32v-.08a.53.53,0,0,1,.62-.06.1.1,0,0,1,0,.14Z" style="fill:#efefef"/><path d="M992,375.32s0,0,0-.06a.36.36,0,0,1,.57,0,0,0,0,0,1,0,.07Z" style="fill:#b3a9b2"/><path d="M992.56,375.25H992l-.65,0-2.88-.18c-3.12-.2-6.24-.37-9.35-.6-2.78-.21-5.55-.45-8.31-.75q-5.09-.52-10.14-1.17a163.93,163.93,0,0,1-19.39-3.66,79.53,79.53,0,0,1-12.83-4.29,39.24,39.24,0,0,1-8.47-4.94,21.12,21.12,0,0,1-4.23-4.37,14.45,14.45,0,0,1-2.7-7.2,1.1,1.1,0,0,0,0-.18v-2.07a20.3,20.3,0,0,1,3.92-10,38.43,38.43,0,0,1,6.83-7.3,45.25,45.25,0,0,1,11.34-7c.48-.2,1-.38,1.47-.57.31-.12.31-.12.24-.43-.22-1-.48-2.05-.66-3.09a24,24,0,0,1,1.16-13.11,22.57,22.57,0,0,1,5.66-8.22,31.92,31.92,0,0,1,10.62-6.77,25.62,25.62,0,0,1,6.28-1.47,37.38,37.38,0,0,1,8.19,0c2.86.29,5.71.66,8.56,1a82.27,82.27,0,0,0,10,.76c.46,0,.91,0,1.36,0a.35.35,0,0,1,.4.21,13,13,0,0,0,5.17,5.24,22.9,22.9,0,0,0,3.56,1.72.87.87,0,0,0,.26.08c.08,0,.16-.05.24-.07s-.06-.18-.12-.22a2.21,2.21,0,0,0-.42-.18,21,21,0,0,1-4.71-2.54,12.09,12.09,0,0,1-3.42-3.7,8.55,8.55,0,0,1,2.21-11.2,7.29,7.29,0,0,1,8.36-.61,9,9,0,0,1,3,2.63c.37.5.73,1,1,1.54a10.92,10.92,0,0,0,5.89,4.63l1.24.4a.82.82,0,0,0,.27.06s.13-.06.13-.1a.24.24,0,0,0-.06-.19,2.58,2.58,0,0,0-.39-.14,15.29,15.29,0,0,1-2.93-1.2l-.48-.29,1.56-.19a47.48,47.48,0,0,1,8.43-.09A45,45,0,0,1,1029,288c2.87,1,5.77,2,8.53,3.37a46,46,0,0,1,6.81,3.92,13.91,13.91,0,0,1,2.33,2,10.07,10.07,0,0,1,.85,1.1,3.14,3.14,0,0,1,.43,2.33,1.89,1.89,0,0,1-.59,1.19,10,10,0,0,0-1.84,3.05c-.12.23.06.26.18.34,1.16.74,2.35,1.45,3.48,2.24s2.2,1.68,3.3,2.52a1.22,1.22,0,0,1,.15.17c0,.08,0,.14-.11.09l-.39-.24a46.86,46.86,0,0,0-6.76-4c-.35-.16-.35-.16-.56.17-.33.55-.33.55.18.95a45.1,45.1,0,0,1,4.55,4.07,2,2,0,0,1,.22.34.09.09,0,0,1-.14,0c-.53-.44-1.06-.91-1.61-1.32-1.21-.9-2.43-1.78-3.65-2.66-.3-.22-.31-.21-.54.09s-.37.37-.37.55.28.31.44.46a22.78,22.78,0,0,1,3.29,4.09c0,.08,0,.11-.13.11a22.2,22.2,0,0,0-3.9-3.91c-.3-.24-.31-.24-.6,0s-.44.27-.48.45.2.36.31.55l1.59,3a2,2,0,0,1,.09.26c0,.1,0,.12-.1.1-.4-.62-.79-1.25-1.21-1.86s-.74-1-1.1-1.5a.33.33,0,0,0-.5-.13c-.74.36-1.49.69-2.24,1a3.41,3.41,0,0,0-.33.17c-.08.05-.08.09,0,.17.41.3.42.46.08.84a3.3,3.3,0,0,1-.53.46,6.54,6.54,0,0,1-2.23,1.21c-.18,0-.15.17-.15.29,0,.93,0,1.86,0,2.79a29.41,29.41,0,0,0,1.15,6.44c-.06,0-.11.05-.16,0a21,21,0,0,1-1.12-3.39,27.39,27.39,0,0,1-.86-5.56c0-.34,0-.34-.38-.29h0c-.56.06-.52,0-.59.61a37.7,37.7,0,0,0-.27,6.37,26.36,26.36,0,0,0,.93,6.3.17.17,0,0,1-.18,0,27.48,27.48,0,0,1-1.33-6.27,45.33,45.33,0,0,1-.17-6.38c0-.12.13-.29-.09-.36s-.32,0-.39.28a23.43,23.43,0,0,0-.83,4c-.15,1.33-.26,2.66-.38,4a1.22,1.22,0,0,1,0,.27V326a1.22,1.22,0,0,1,0,.27l.17,2.33a.1.1,0,0,1-.16,0c-.09-.61-.2-1.22-.27-1.84a43.44,43.44,0,0,1-.19-7.39,31.9,31.9,0,0,1,.58-4.57c.06-.28,0-.28-.23-.24-.82.13-.82.13-1.08.93A44.07,44.07,0,0,0,1028,324a41.53,41.53,0,0,0-.29,6.69.12.12,0,0,1-.16,0,47,47,0,0,1-.11-4.89,44.21,44.21,0,0,1,1.58-10.48c.15-.53.15-.54-.41-.43a43.31,43.31,0,0,0-9.11,2.62,16.52,16.52,0,0,0-4.44,2.69,9.08,9.08,0,0,0-2.44,3.25,7.34,7.34,0,0,0-.14,5.06,15.83,15.83,0,0,0,1.39,3.25c.76,1.35,1.54,2.7,2.37,4a15.91,15.91,0,0,0,5.08,4.85l1.38.86a.09.09,0,0,1,0,.13c-.23.12-.45,0-.68,0a3,3,0,0,0-2.27.64.56.56,0,0,1-.29.14c-.25,0-.39-.17-.54-.32l-4-3.9-6.32-6.13-6.22-6c-2-2-4.08-3.91-6.07-5.91a1.14,1.14,0,0,1-.4-.5c0-.18.1-.29.18-.42a3,3,0,0,0-4.47-3.93,1.64,1.64,0,0,1-.54.44c-.24,0-.37-.14-.49-.3a9.88,9.88,0,0,0-1.09-1.15c-1.3-1.29-2.54-2.63-3.82-3.94-1.65-1.7-3.3-3.42-4.94-5.13s-3.41-3.56-5.14-5.32c-.39-.4-.74-.83-1.14-1.23a.63.63,0,0,1-.23-.39,1.52,1.52,0,0,1,.32-.76,3,3,0,0,0-1.82-4.19,3,3,0,0,0-3.56,4.23,1,1,0,0,1,.17.43,14.73,14.73,0,0,1-1.57,1.95c-1.51,1.85-3.06,3.68-4.6,5.51-1.89,2.24-3.77,4.5-5.66,6.74q-2.48,2.94-4.94,5.9c-1.65,2-3.32,3.95-5,5.93a.69.69,0,0,1-.3.23,5.28,5.28,0,0,0-1.43,0,3,3,0,0,0-.2,5.84c.25.09.53.05.78.14a.18.18,0,0,1,.09.1c-.06.07,0,.13,0,.16.61,1.17,1.08,2.41,1.6,3.61,1.72,3.93,3.41,7.86,5.12,11.79a17.25,17.25,0,0,1,.92,2.28.29.29,0,0,1-.05.18,8.87,8.87,0,0,0-1.3,1.68.18.18,0,0,1-.19,0,19.8,19.8,0,0,0-.17-2,5.41,5.41,0,0,0-1.39-2.69,73.05,73.05,0,0,1-7.91-10.54,59.53,59.53,0,0,1-4-7.44c-.18-.4-.17-.35-.54-.27a29.74,29.74,0,0,0-7.53,2.93,37.56,37.56,0,0,0-8.29,5.91,23.48,23.48,0,0,0-4.6,5.89,12.89,12.89,0,0,0-1.52,5.1,10.13,10.13,0,0,0,1.19,5.48,15.94,15.94,0,0,0,3.18,4.12,32.92,32.92,0,0,0,7,4.94,69.74,69.74,0,0,0,11.11,4.65,117,117,0,0,0,13.4,3.55c3.24.66,6.49,1.26,9.75,1.83,2.17.38,4.36.67,6.54,1s4.25.56,6.38.81c1.64.19,3.28.35,4.92.5,1.93.19,3.87.36,5.8.52,1.43.12,2.85.22,4.28.32l2,.15C992.75,374.77,992.79,374.91,992.56,375.25Z" style="fill:#010101"/><path d="M952.65,350h.18c.13.15,0,.32,0,.49a3,3,0,0,0,2.9,3.46,3,3,0,0,0,2.83-1.77,3,3,0,0,0-3.49-4.15,1.07,1.07,0,0,1-.5.05c-.27-.16-.31-.46-.42-.71-2.16-5-4.35-10-6.5-15l-.69-1.58c-.06-.15-.17-.3-.09-.49a1.57,1.57,0,0,1,.59-.26,3,3,0,0,0,.75-5.3,1.89,1.89,0,0,1-.48-.36c-.07-.23.11-.35.22-.48,1.36-1.66,2.75-3.29,4.12-4.94q2.79-3.35,5.6-6.67t5.66-6.74l5-5.93a6.61,6.61,0,0,1,1.19-1.29,2.5,2.5,0,0,1,1.16.81,1.43,1.43,0,0,1-.17.53c-1.16,2.34-2.26,4.7-3.38,7.06-1,2.18-2.11,4.36-3.11,6.56a1.73,1.73,0,0,1-.38.64.73.73,0,0,1-.58-.05,3,3,0,1,0-1.66,5.78,1.1,1.1,0,0,1,.52.19,18.21,18.21,0,0,1,.68,2.61c.71,3,1.43,6,2.14,9,.47,2,1,4,1.44,6.07a1.47,1.47,0,0,1,.06.42c-.06.26-.3.29-.49.38a3,3,0,1,0,1.26-.22.52.52,0,0,1-.43-.12,3.11,3.11,0,0,1-.31-1q-1.57-6.7-3.19-13.41c-.26-1.1-.5-2.21-.81-3.3a.63.63,0,0,1,0-.36c.14-.21.37-.21.58-.27a3,3,0,0,0,1.45-5c-.13-.15-.3-.27-.34-.49a2.65,2.65,0,0,1,.35-1c1.15-2.34,2.26-4.7,3.37-7.06s2.16-4.44,3.17-6.69c0-.11.08-.24.2-.3a6.27,6.27,0,0,1,1.37,0,1.52,1.52,0,0,1,.25.74c1.71,7.61,3.44,15.21,5.14,22.82.32,1.43.64,2.85,1,4.27a1.5,1.5,0,0,1,.07.51c0,.24-.24.35-.41.48a3,3,0,0,0-1,3.29,3,3,0,0,0,2.77,2.12c.4,0,.78-.21,1.19-.1a5.64,5.64,0,0,1,.71,1.51q3.31,7.77,6.62,15.55a.83.83,0,0,1,.12.53,1.32,1.32,0,0,1-.39.52,2.93,2.93,0,0,0-.69,3.17,2.89,2.89,0,0,0,2.81,1.94,3,3,0,0,0,.08-6c-.48,0-.94.16-1.42.13a1,1,0,0,1-.32-.51c-1.5-3.48-3-7-4.46-10.46-.85-2-1.69-4-2.54-6a.92.92,0,0,1-.13-.58c.07-.23.27-.33.43-.48a3,3,0,0,0-2.39-5.25c-.21,0-.43.11-.63,0a1.34,1.34,0,0,1-.23-.61c-1.81-8.16-3.67-16.3-5.5-24.46-.17-.79-.35-1.58-.53-2.37a1.87,1.87,0,0,1-.1-.78,1.58,1.58,0,0,1,1-.61c.26.06.36.29.52.45,1.52,1.45,2.93,3,4.4,4.5q2.58,2.66,5.14,5.33l4.91,5.1a20.58,20.58,0,0,1,2,2.12,2,2,0,0,1-.13.73,2.94,2.94,0,0,0,1.68,3.42,3,3,0,0,0,2.65-.06,1.32,1.32,0,0,1,.5-.22.59.59,0,0,1,.41.21c.52.53,1.11,1,1.63,1.53,1.62,1.68,3.33,3.25,5,4.88,1,1,2,2,3,2.93,2.13,2,4.21,4.09,6.32,6.13s4.13,3.95,6.15,6c.16.17.35.31.52.46s.5.38.56.72a1.21,1.21,0,0,1-.16.53,3.08,3.08,0,0,0,.16,2.9c.1.18.3.33.21.58a3,3,0,0,0-1.87,0,1.3,1.3,0,0,1-1.68-1.31c0-.31,0-.62.09-.93a2.59,2.59,0,0,0-1.36-2.69,16.88,16.88,0,0,0-3.37-1.56,17.41,17.41,0,0,0-6.27-1,15.41,15.41,0,0,0-10.27,4,8.07,8.07,0,0,0-2.2,3.2,3.92,3.92,0,0,0,1.63,4.91,5.43,5.43,0,0,0,3.5,1,8,8,0,0,0,1.19-.21,1.7,1.7,0,0,1,1,.1c.79.31,1.6.57,2.41.86a9,9,0,0,1,1.11.47,1.13,1.13,0,0,1,.52.49,1.75,1.75,0,0,0,.57.69,6.68,6.68,0,0,1,.61.69s0,.11,0,.16a.9.9,0,0,1-.16,0l-1-.48a.49.49,0,0,0-.53.06,1.6,1.6,0,0,1-1.63.19s-.06,0-.15,0l1.39,1.57a.13.13,0,0,1-.13.14c-.26-.18-.51-.36-.78-.52a.52.52,0,0,0-.71.12,1.28,1.28,0,0,1-1,.35,5.62,5.62,0,0,1-3-.83c-.45-.27-.52-.28-.86.11a4,4,0,0,1-2,1.33c-.2.06-.2.14-.13.3.16.37.34.74.47,1.12a1.69,1.69,0,0,1-.21,1.58c0-.09,0-.16,0-.23-.13-.72-.24-.84-1-.95a1.85,1.85,0,0,1-1.37-.85l-.4-.63a.93.93,0,0,0-1-.48,6.14,6.14,0,0,0-.84.23,7.44,7.44,0,0,1-1.85.44c-1.27.1-1.93-.63-2.08-2a7.19,7.19,0,0,1,.12-1.52,10.69,10.69,0,0,0,.06-2.33,3.88,3.88,0,0,0-2.25-3.24,7.26,7.26,0,0,0-2.73-.74c-1-.08-2-.09-3.07-.13a40.1,40.1,0,0,1-10.38-1.54,26.93,26.93,0,0,1-8.75-4.45,14.82,14.82,0,0,0-1.21-.87c-.25-.17-.37-.12-.42.17a3.48,3.48,0,0,0-.08,1.06A18.6,18.6,0,0,0,959.1,349c.08.17.18.33.27.49a1.83,1.83,0,0,0,1.13.9c.91.24,1.81.54,2.72.81a9.24,9.24,0,0,1,3.66,2.06,2,2,0,0,1,.47.73c.24.64.44,1.29.65,1.94a.2.2,0,0,1-.17,0c-.22-.34-.44-.68-.68-1a.39.39,0,0,0-.52-.15,2.84,2.84,0,0,1-2,0,10,10,0,0,1-2.07-.67s-.12,0-.13,0a.25.25,0,0,0,0,.15c.09.31.19.62.28.93a.45.45,0,0,1,0,.28,1.93,1.93,0,0,0,.1,1.16,6,6,0,0,1,0,2,.89.89,0,0,1-.1.19c-.11-.42-.21-.81-.32-1.18a3.2,3.2,0,0,0-.26-.6c-.17-.3-.31-.33-.66-.27a5.32,5.32,0,0,1-.69,0,1.39,1.39,0,0,1-1.29-.67,6,6,0,0,0-.78-1c0,.14,0,.28.05.41a1.47,1.47,0,0,1-.48,1.72.31.31,0,0,0,0,.27c.06.24.16.47.22.71a1.84,1.84,0,0,1-.51,1.75s0,0-.07,0h0a4.4,4.4,0,0,0,0-.51,4.76,4.76,0,0,0-.07-1,1,1,0,0,0-1-.82,1.48,1.48,0,0,1-1.42-1.08.66.66,0,0,0-.57-.48c-.33-.09-.66-.15-1-.24-.57-.18-.64-.31-.57-.92,0-.33.27-.49.35-.73-.19.18-.24.51-.5.69-.23.45-.48.9-.69,1.36a3,3,0,0,1-1.64,1.63.85.85,0,0,1-1-.16,4,4,0,0,0-.38-.34c-.38-.31-.56-.29-.81.14s-.37.71-.56,1.07-.2.42-.32.62c0,0-.12.06-.19.09s-.07-.11-.07-.16c0-.32.07-.65.15-1,.15-.57.33-1.13.51-1.69a.85.85,0,0,1,.25-.32c.17-.15.38-.27.56-.41a2.7,2.7,0,0,0,1-1.44A2.07,2.07,0,0,1,951,353l.89-.5a1.15,1.15,0,0,0,.66-1.13A12.34,12.34,0,0,1,952.65,350Z" style="fill:#010101"/><path d="M1006.87,357.27a1.89,1.89,0,0,1,.42-1.2l3.2-4.29a4.89,4.89,0,0,1,1.67-1.32,11.59,11.59,0,0,1,4.06-1.27,23.53,23.53,0,0,1,4.28,0c.34,0,.68,0,1,0a1.64,1.64,0,0,1,.61,1.13.3.3,0,0,1-.17.34,10.67,10.67,0,0,1-1.49.06,11.86,11.86,0,0,0-5.63,1.6,4.7,4.7,0,0,0-1.19,1,1.73,1.73,0,0,0,.12,2.47,5.34,5.34,0,0,0,3,1.33,13.2,13.2,0,0,0,8.33-1.22,5,5,0,0,0,1.44-1.1,1.78,1.78,0,0,0-.18-2.8,4.11,4.11,0,0,0-1.12-.67,2.31,2.31,0,0,1-.79-.38,1.42,1.42,0,0,1,.9-1.5,2.76,2.76,0,0,1,1-.27c.56,0,1.13.08,1.69.16.25.08.28.3.35.51a5.87,5.87,0,0,0,.42,1.22,1.07,1.07,0,0,0,1,.59,1.75,1.75,0,0,1,1.81,1.46s.07.07.05.12-.07-.11-.06-.17c-.33-1-.53-2-.91-2.91-.09-.21-.25-.45,0-.69a11,11,0,0,1,1.81-.08.62.62,0,0,1,.52.26,5.49,5.49,0,0,0,.76.61.84.84,0,0,0,.89.07,1.83,1.83,0,0,1,1.55,0c-.08-.23-.4-.32-.35-.61l2.69.08h.14c1.43,0,2.86.07,4.28.12s2.73.1,4.09.19a5,5,0,0,1,2,.53,2.1,2.1,0,0,1,1.23,1.63,3.07,3.07,0,0,1-.75,1.52c-.74,1-1.52,1.93-2.19,3a7.7,7.7,0,0,1-4.52,3.08,11.63,11.63,0,0,1-3.49.52,26.35,26.35,0,0,1-3.08-.11,2.73,2.73,0,0,0-.41,0c-1.37.05-2.74-.07-4.1-.11-2.61-.08-5.21-.19-7.82-.28l-5.07-.18c-1.74-.07-3.48-.1-5.22-.2-1.21-.07-2.42,0-3.62-.16a5.28,5.28,0,0,1-2.46-.81A1.35,1.35,0,0,1,1006.87,357.27Z" style="fill:#b3a9b2"/><path d="M1006.87,357.27a1.69,1.69,0,0,0,.92,1.26,4.8,4.8,0,0,0,2.21.65c1.2.08,2.39.13,3.59.17l9.17.32,10.62.38c1.92.07,3.84.2,5.77.21a11.78,11.78,0,0,0,5.94-1.48,5.29,5.29,0,0,0,1.73-1.53c.93-1.28,1.9-2.54,2.83-3.82a7,7,0,0,0,.5-.94l.13-.18a5.43,5.43,0,0,1-.06,2.44,3.58,3.58,0,0,1-.67,1.37c-.9,1.17-1.81,2.33-2.7,3.51a5.41,5.41,0,0,1-1.68,1.44,12.15,12.15,0,0,1-4.55,1.38,23.19,23.19,0,0,1-3.82,0c-1.77-.06-3.53-.16-5.3-.24l-5.72-.29c0-.24.13-.36.26-.51s.12-.28-.12-.27c-.44,0-.86-.1-1.3-.09-2,.05-4.09-.14-6.13-.09-1.41,0-2.82-.12-4.23-.11a1.19,1.19,0,0,0-1.08.4c-.08.11-.2.21-.36.12-.69,0-1.39-.06-2.09-.11a4.07,4.07,0,0,1-3.49-2.12A2.55,2.55,0,0,1,1006.87,357.27Z" style="fill:#010101"/><path d="M1026.33,349.3c-.4.12-.8.22-1.19.37a.83.83,0,0,0-.37.37c-.14.29-.22.61-.33.91,0,.46-.33.71-.6,1a2.46,2.46,0,0,1-.44.34,1,1,0,0,0-.84,1.06.68.68,0,0,1,0,.14c0,.18,0,.44-.26.44s-.21-.26-.25-.43a8.16,8.16,0,0,1-.31-1.82c0-.37,0-.77.26-1.07a1.61,1.61,0,0,0,0-.54,7.8,7.8,0,0,0-.43-.87l-.95-1.42c.14-.25.37-.18.58-.16a3,3,0,0,0,2.85-4.77,3.05,3.05,0,0,0-1-.8c-.15-.1-.36-.15-.37-.38v-.12a16.73,16.73,0,0,1,3.71,2.46,4.74,4.74,0,0,0,3.73,1.23c.38,0,.75-.05,1.12-.09a1.76,1.76,0,0,1,1.23.34l.11.09a11.57,11.57,0,0,1,2.5,3.27,2.16,2.16,0,0,0,.75.91l.55.62a.6.6,0,0,1,.06.19l-.21,0-.16-.09a1.42,1.42,0,0,0-1.41,0,.7.7,0,0,1-.83,0c-.37-.26-.72-.56-1.08-.85l-.18-.14c-.37-.08-.58-.39-.87-.59a4.84,4.84,0,0,0-.79-.47c-.33-.12-.46,0-.43.34s.21.52.14.81c.1.31.2.62.29.92.24.8.47,1.6.7,2.4a1.15,1.15,0,0,1,0,.32h0l-.23-.33c-.2-.26-.37-.53-.59-.77a.92.92,0,0,0-.87-.31,1.1,1.1,0,0,1-1.35-.85c-.13-.32-.21-.67-.32-1,0-.16-.12-.31-.18-.46a.94.94,0,0,0-1.09-.25A2.28,2.28,0,0,1,1026.33,349.3Z" style="fill:#010101"/><path d="M1022.68,341.67a8.71,8.71,0,0,1,1,.65,3.14,3.14,0,0,1-2.59,5.44c-.17,0-.36-.15-.53,0a5.77,5.77,0,0,0-1.31-.93c0-.09-.1-.19-.16-.28a3.14,3.14,0,0,1-.2-3.54c0-.08.07-.17.11-.25a.65.65,0,0,1,.32-.35l.33-.25a3.15,3.15,0,0,1,2.66-.59Z" style="fill:#fff"/><path d="M1012.82,361.33a2.41,2.41,0,0,0,.41-.37.74.74,0,0,1,.68-.29l4.56.1,7.67.16h.23c.14,0,.16.08.08.18l-.47.51-.2.25a.86.86,0,0,1-.76.27c-1,0-2.11,0-3.16-.08a.61.61,0,0,0-.61.26,1.6,1.6,0,0,1-1.59.68c-2-.08-3.94-.09-5.92-.13-.69,0-1.39-.05-2.18-.07.23-.27.43-.48.61-.7S1012.6,361.59,1012.82,361.33Z" style="fill:#ccae53"/><path d="M1027.54,330.76l.16,0,.09,2.31h0Z" style="fill:#94489b"/><path d="M1052.52,310.3l.11-.09,1.1.93a.22.22,0,0,1-.07.06Z" style="fill:#010101"/><path d="M1031.09,328.58h.16l.17,1.22c0,.06-.05.11-.12.09Z" style="fill:#010101"/><path d="M1034.27,327.3h.18l.45,1.18-.12.08Z" style="fill:#94489b"/><path d="M953.14,354.94a4,4,0,0,1,.73-1.09l.07,0-.65,1.08Z" style="fill:#b3a9b2"/><path d="M1036.79,323.26h.16l.37,1a.2.2,0,0,0-.08,0Z" style="fill:#010101"/><path d="M1044,313.37l.1-.1.47,1-.09,0Z" style="fill:#010101"/><path d="M1049.62,311.61h.14l.8.75a.16.16,0,0,1-.15,0Z" style="fill:#010101"/><path d="M1031.3,329.89l.12-.09.2,1a.11.11,0,0,1-.15,0Z" style="fill:#94489b"/><path d="M1037.32,324.31l.28.71-.08,0-.28-.71Z" style="fill:#94489b"/><path d="M1047.05,312.93l.13-.11c.14.17.35.32.3.59Z" style="fill:#94489b"/><path d="M1031.47,330.8l.15,0,.15.65-.12,0Z" style="fill:#b3a9b2"/><path d="M1002.73,357.18l.13-.14.35.45c0,.06,0,.08-.07.08Z" style="fill:#94489b"/><path d="M1050.41,312.37l.15,0,.33.35a.11.11,0,0,1-.07.08Z" style="fill:#94489b"/><path d="M1027.77,333h0l.16.53-.11,0Z" style="fill:#b3a9b2"/><path d="M967.83,356H968l.11.38-.08,0Z" style="fill:#94489b"/><path d="M1034.9,328.48l0,0c0,.11,0,.22.07.33l-.21-.29Z" style="fill:#b3a9b2"/><path d="M1031.08,326.25a.16.16,0,0,1,0-.27Z" style="fill:#010101"/><path d="M1031.07,322.79a.16.16,0,0,1,0-.27Z" style="fill:#010101"/><path d="M1053.73,311.14l.17.14c0,.05,0,.08-.08.07l-.16-.15Z" style="fill:#b3a9b2"/><path d="M1051.14,313l0,.09L1051,313S1051.1,313,1051.14,313Z" style="fill:#b3a9b2"/><path d="M1003.28,357.69l-.14-.12.07-.08.07.2Z" style="fill:#94489b"/><path d="M957.84,360v.09h0l.06-.07Z" style="fill:#010101"/><path d="M1053.9,311.28l.16.12a.09.09,0,0,1-.06.06l-.18-.11Z" style="fill:#b3a9b2"/><polygon points="1035.24 329.39 1035.23 329.36 1035.25 329.37 1035.24 329.39" style="fill:#b3a9b2"/><path d="M1035.17,329.19l0,0a.05.05,0,0,1,0,0l0,0Z" style="fill:#b3a9b2"/><path d="M1035,329h0l0,.06,0,0Z" style="fill:#b3a9b2"/><path d="M1044.69,314.63l0,0,0,0,0,0Z" style="fill:#b3a9b2"/><path d="M1044.6,314.44l0,0,0,0,0,0Z" style="fill:#b3a9b2"/><path d="M1047.77,313.79l0,0,0,0,0,0Z" style="fill:#b3a9b2"/><path d="M1047.65,313.55l0,.12-.08-.06C1047.58,313.56,1047.59,313.54,1047.65,313.55Z" style="fill:#b3a9b2"/><path d="M1047.59,313.61l0-.15.11.09Z" style="fill:#94489b"/><path d="M1051.33,313.28l.05,0h0l0,0Z" style="fill:#b3a9b2"/><path d="M1051.33,313.28l0,0h0a.08.08,0,0,1,0,0Z" style="fill:#b3a9b2"/><path d="M1051.14,313h-.1a0,0,0,0,1,0-.06l0,0Z" style="fill:#94489b"/><path d="M1051,312.94l-.12-.08a.05.05,0,0,1,.06-.06l.08.11Z" style="fill:#94489b"/><path d="M1050.89,312.7l.08.1-.06.06-.09-.08Z" style="fill:#94489b"/><path d="M1054.06,311.4l0,.09-.1,0Z" style="fill:#b3a9b2"/><path d="M1003.28,357.69l.07,0-.07,0Z" style="fill:#94489b"/><path d="M972.39,299.3h-1.33c-.16,0-.32,0-.43-.11l-1.13-.76a.56.56,0,0,1-.28-.37,8.18,8.18,0,0,1-.45-1.16,3.12,3.12,0,1,1,5.64,1.08c-.08.12-.14.27-.21.4a3.19,3.19,0,0,1-.31.33l-.6.28-.45.22A.35.35,0,0,1,972.39,299.3Z" style="fill:red"/><path d="M947.76,324.37a3.18,3.18,0,0,1,1.81,2.28,3.13,3.13,0,0,1-2.15,3.6l-.5.12a.23.23,0,0,1-.26,0,3.14,3.14,0,0,1-2.92-4.63,3.12,3.12,0,0,1,3.25-1.6l.32,0A.47.47,0,0,1,947.76,324.37Z" style="fill:#fff"/><path d="M954.58,348.09a4.2,4.2,0,0,1,1.65-.21,3.13,3.13,0,0,1,.25,6.17,3.12,3.12,0,0,1-3.69-3.73,2.51,2.51,0,0,0,0-.27,3.74,3.74,0,0,1,1.29-1.7s0-.05,0-.08A.53.53,0,0,1,954.58,348.09Z" style="fill:#fff"/><path d="M995.56,320c-.12.07-.25.13-.36.21a3.19,3.19,0,0,1-3.58-.21,3.12,3.12,0,0,1-1-3.42c0-.16.09-.32.13-.49a.58.58,0,0,1,.27-.39l.32-.33a3.11,3.11,0,0,1,4.3-.21,3.15,3.15,0,0,1,.53,4.17c-.08.12-.15.24-.23.35A.68.68,0,0,1,995.56,320Z" style="fill:#fff"/><path d="M947.76,324.37l-.45-.17,4.42-5.3L969,298.26l.19-.21.28.37-5.07,6L948.14,323.9C948,324.05,947.89,324.21,947.76,324.37Z" style="fill:#efefef"/><path d="M995.56,320l.33-.32,10,9.75,13.12,12.72.28.25a.37.37,0,0,1-.33.35l-9-8.7-14.18-13.76Z" style="fill:#efefef"/><path d="M991,315.73l-.27.39-6.11-6.33q-5.36-5.54-10.7-11.09a.29.29,0,0,1,.31-.33l10.64,11,6,6.21Z" style="fill:#efefef"/><path d="M954.58,348.09l-.43.18c-1-2.34-2-4.67-3-7l-4.65-10.72s0-.05,0-.07a0,0,0,0,1,0,0l.17-.06.26,0c.5,1.18,1,2.37,1.51,3.55l6.06,13.95Z" style="fill:#efefef"/><path d="M1022.21,293.15a1.61,1.61,0,0,1,1.63-1.62,1.64,1.64,0,0,1,1.63,1.62,1.67,1.67,0,0,1-1.64,1.63A1.63,1.63,0,0,1,1022.21,293.15Z" style="fill:#fff"/><path d="M946.49,330.45l0,.09Z" style="fill:#010101"/><path d="M966.64,338a3.11,3.11,0,0,1,3.36,2.62,3.13,3.13,0,1,1-4.21-2.44l.37-.17A.35.35,0,0,1,966.64,338Z" style="fill:#fff"/><path d="M964,314.22a2.41,2.41,0,0,0,.21.24,3,3,0,0,1,.89,3.15,3,3,0,0,1-2.39,2.22l-.36.09a.35.35,0,0,1-.45,0c-.27-.07-.55-.11-.82-.2a3.13,3.13,0,1,1,2-5.92c.17.06.35.09.53.14A.6.6,0,0,1,964,314.22Z" style="fill:#fff"/><path d="M989.19,350.71a4.85,4.85,0,0,1,1.65-.23,3.13,3.13,0,1,1-2.38.78c.11-.11.23-.21.35-.31A.48.48,0,0,1,989.19,350.71Z" style="fill:red"/><path d="M979.2,327.48c.34,0,.68-.11,1-.12a3.06,3.06,0,0,1,3,2.13,3.13,3.13,0,0,1-1.14,3.52l-.34.25a.48.48,0,0,1-.39.18l-.54.09a3.11,3.11,0,0,1-3.42-1.82,3.14,3.14,0,0,1,1-3.77l.35-.29A.54.54,0,0,1,979.2,327.48Z" style="fill:red"/><path d="M979.2,327.48l-.43.17q-2.82-12.52-5.64-25c-.22-1-.48-2-.71-3a1.82,1.82,0,0,1,0-.32l.45-.1c.49,2.21,1,4.42,1.48,6.63q1.84,8.18,3.68,16.34Z" style="fill:red"/><path d="M981.35,333.44l.39-.18c.77,1.8,1.55,3.59,2.31,5.39q2.58,6,5.14,12.06l-.38.24L986,344.36q-2.29-5.37-4.58-10.75Z" style="fill:red"/><path d="M961.87,319.93h.45c.14.59.27,1.17.41,1.75q1.9,8,3.8,16c0,.12.07.24.11.36h-.48q-1.5-6.28-3-12.57Q962.51,322.7,961.87,319.93Z" style="fill:#efefef"/><path d="M964,314.22l-.36-.27c1.27-2.67,2.53-5.34,3.8-8q1.62-3.37,3.22-6.75l.43.11c-.58,1.22-1.15,2.45-1.73,3.67Q966.66,308.58,964,314.22Z" style="fill:#efefef"/><path d="M1023.39,352.18a3.67,3.67,0,0,0,1.05-1.23,6,6,0,0,1,2,1,1.87,1.87,0,0,1,.16,3,5.38,5.38,0,0,1-1.27,1,10.69,10.69,0,0,1-4.26,1.38,18.48,18.48,0,0,1-2.46.16,8.7,8.7,0,0,1-4-.9,6.54,6.54,0,0,1-1-.74,1.83,1.83,0,0,1-.23-2.3,5,5,0,0,1,1.86-1.58,11.77,11.77,0,0,1,3.61-1.18,14.49,14.49,0,0,1,3.15-.17l-.15,1.1c-.22.21-.5.14-.76.13a9,9,0,0,0-3.34.53,4.06,4.06,0,0,0-1.57,1,1.16,1.16,0,0,0,.32,2,6.09,6.09,0,0,0,3.35.64,7.86,7.86,0,0,0,3.35-.9,3.2,3.2,0,0,0,.92-.71,1.1,1.1,0,0,0-.08-1.65C1023.82,352.51,1023.53,352.44,1023.39,352.18Z" style="fill:#fff"/><path d="M1035.81,357.89l2.74.09,1.39.08c.13,0,.17.07.1.17-.22.34-.42.63-.94.6-1.26-.09-2.54-.09-3.81-.13a7.53,7.53,0,0,1-.83-.08c-.31,0-.41-.23-.23-.49a12.23,12.23,0,0,1,.94-1.21,1.2,1.2,0,0,1,1-.34l3.21.1c.5,0,1,.05,1.49.07.16,0,.24.05.13.23a.9.9,0,0,1-.92.54c-1.19-.07-2.38-.07-3.58-.12A.57.57,0,0,0,1035.81,357.89Z" style="fill:#fff"/><path d="M1039.67,356.32c-.6,0-1.21-.07-1.81-.12a.86.86,0,0,1-.32-.05c-.16-.08-.23-.21-.11-.38s.31-.43.46-.64.09-.23-.1-.24h-.89c-.17,0-.23-.07-.11-.23s0,0,.06-.07a.88.88,0,0,1,1.12-.49,1.84,1.84,0,0,0,.41,0l4.14.12h.19c.22,0,.24.06.1.26-.33.46-.67.93-1,1.38a1.07,1.07,0,0,1-.85.4h-1.26Z" style="fill:#fff"/><path d="M1040.51,352.56H1040a.79.79,0,0,0-.3.08c-.06.05-.08.15-.12.23a1.59,1.59,0,0,0,.2.07l1.07.07c.14,0,.2.07.11.21-.21.34-.42.62-.91.56-.71-.08-1.43-.07-2.14-.1-.26,0-.28-.05-.13-.27.29-.41.57-.81.88-1.2a1.41,1.41,0,0,1,1.17-.47c.36,0,.71.05,1.07.06.51,0,1,0,1.54,0s1.08.05,1.62.09.54.24.29.61a3.24,3.24,0,0,0-.36.49c-.31.72-.92.6-1.5.57-.17,0-.16-.12-.09-.23s.21-.27.3-.42.11-.27-.14-.28l-2-.09Z" style="fill:#fff"/><path d="M1030.63,349.57a5.88,5.88,0,0,1-.24-.89c-.07-.39.12-.54.48-.4a3.6,3.6,0,0,1,.69.39c.35.26.68.54,1,.81a1.6,1.6,0,0,1-.42.1C1031.65,349.59,1031.14,349.58,1030.63,349.57Z" style="fill:#efefef"/><path d="M1026.33,349.3l1-.24c.51-.11.58-.06.8.42l-1.57-.09A1,1,0,0,1,1026.33,349.3Z" style="fill:#efefef"/><path d="M1031.64,353.21l.07.09,0,0,0-.12Z" style="fill:#010101"/><path d="M1023.39,352.18a8.23,8.23,0,0,1,.74.46,1.22,1.22,0,0,1,.08,1.81,4.52,4.52,0,0,1-1.76,1.1,8.49,8.49,0,0,1-3.56.54,5.39,5.39,0,0,1-2.54-.68,1.3,1.3,0,0,1-.76-1.27,1.39,1.39,0,0,1,.4-.82,4,4,0,0,1,1.63-1,8.7,8.7,0,0,1,3.19-.57c.34,0,.68,0,1,0l.4,2.18h.08c0-.2.08-.4.11-.6C1022.56,352.46,1022.56,352.46,1023.39,352.18Z" style="fill:#b3a9b2"/><path d="M1040.21,355h.6a.66.66,0,0,1,.2.06,1.21,1.21,0,0,1-.09.2.49.49,0,0,1-.53.28c-.4,0-.8-.05-1.2-.09,0,0-.1-.12-.08-.15.09-.18.2-.34.45-.33s.43,0,.65,0Z" style="fill:#b3a9b2"/><path d="M925,393.52a18.87,18.87,0,0,1-2.34.1h-1.6l-.85,7.75h-1.53l1.88-17.67h5.14c3,0,5,1.52,5,4.17a5.24,5.24,0,0,1-4.15,5.3l4.88,7.85-1.38.77Zm-1.3-1.2c3.28,0,5.38-1.38,5.38-4.43,0-2.1-1.63-3-4-3h-3.12l-.75,7.4Z"/><path d="M933.27,396.62c0-5.05,2.22-9.28,6.32-9.28a2.81,2.81,0,0,1,3.15,3c0,1.82-1.65,2.82-3.3,3.45l-4.7,1.8c0,.25,0,.52,0,.77,0,2.58.47,4,1.7,4a10.3,10.3,0,0,0,4.32-1.35l.5,1.13a10.23,10.23,0,0,1-5,1.55C934,401.67,933.27,399.27,933.27,396.62Zm5.79-4.08c1.38-.55,2.28-1.32,2.28-2.17a1.64,1.64,0,0,0-1.83-1.75c-3.09,0-4.22,3-4.64,5.6Z"/><path d="M944,397.72c0-4.15,2.83-10.1,7.9-10.1a13.58,13.58,0,0,1,2.25.17l-1.4,13.58h-1.43l.3-2.68c-2.07,1.88-3.67,3-5.07,3C944.87,401.69,944,400,944,397.72Zm7.77-.68.88-8.12a6.45,6.45,0,0,0-1-.05c-4.07,0-6.19,5.3-6.19,8.7,0,1.57.47,2.75,1.42,2.75C948.19,400.32,951.11,397.74,951.81,397Z"/><path d="M959.67,382.52h1.42l-2,18.85h-1.4Z"/><path d="M964.42,399.14a6.58,6.58,0,0,1,.05-.95l1-9.2h-2l.13-1.27h2l.27-2.8h1.4l-.28,2.8h4.43l-.13,1.27h-4.42l-1,9.08a9.93,9.93,0,0,0-.07,1.1c0,.95.3,1.2,1.14,1.2a8.82,8.82,0,0,0,3-.85l.37,1.17a8,8,0,0,1-3.55,1C966,401.67,964.42,401.82,964.42,399.14Z"/><path d="M974.94,387.72h1.4l-1.42,13.65h-1.4Zm-.3-4.25,1.53-1.3,1.27,1.3-1.58,1.32Z"/><path d="M981.52,387.72h1.42l-.25,2.42c.95-.8,3.07-2.77,4.9-2.77s2.3.87,2.2,2.52c1-.85,3-2.52,4.82-2.52s2.2.72,2.2,2.1c0,.57-.07,1.25-.15,2l-1.07,9.85h-1.38l1-9.53a19.06,19.06,0,0,0,.17-2c0-.93-.3-1.23-1.4-1.23s-4.07,2.45-4.37,2.73l-1.08,10h-1.4l1.05-9.53c.1-.87.18-1.5.18-2,0-.9-.3-1.18-1.38-1.18-.87,0-3.8,2.4-4.47,2.88l-1,9.8h-1.4Z"/><path d="M999.89,396.62c0-5.05,2.22-9.28,6.32-9.28a2.81,2.81,0,0,1,3.15,3c0,1.82-1.65,2.82-3.3,3.45l-4.7,1.8c0,.25,0,.52,0,.77,0,2.58.47,4,1.7,4a10.3,10.3,0,0,0,4.32-1.35l.5,1.13a10.23,10.23,0,0,1-5,1.55C1000.59,401.67,999.89,399.27,999.89,396.62Zm5.8-4.08c1.37-.55,2.27-1.32,2.27-2.17a1.63,1.63,0,0,0-1.82-1.75c-3.1,0-4.23,3-4.65,5.6Z"/><path d="M1018.31,383.7h4.3c4.93,0,8.58,2.39,8.58,7.82,0,6.5-3.73,9.85-10.18,9.85h-4.57Zm3,16.39c5.3,0,8.32-2.87,8.32-8.52,0-4.65-2.92-6.6-7.25-6.6h-2.75l-1.6,15.12Z"/><path d="M1036.26,383.7h1.48L1036,400h7.67l-.15,1.35h-9.17Z"/><path d="M1044.51,393.57c0-5.88,3.6-10,9.58-10a9.28,9.28,0,0,1,4,.67l-.55,1.23a8.43,8.43,0,0,0-3.48-.58c-5.2,0-8,3.57-8,8.67,0,4.35,2.63,6.7,6.83,6.7a11.66,11.66,0,0,0,3.75-.55l.3,1.3a14.78,14.78,0,0,1-4.68.63C1047.46,401.62,1044.51,398.42,1044.51,393.57Z"/><path d="M157.13,205.19l23.23,18a2.51,2.51,0,0,0,3.5-.44l4.55-5.88,7.42,16.72a2.55,2.55,0,0,0,2,1.47,2.52,2.52,0,0,0,2.27-.95l21.74-28.06a2.49,2.49,0,0,0-1.56-4l-18-3,4.55-5.87a2.49,2.49,0,0,0-.45-3.49l-3.2-2.49a22.33,22.33,0,1,0-14.43-39.76,16.83,16.83,0,1,0-33.53,2.6l-1.8-1.39a2.48,2.48,0,0,0-3.49.44L142.94,158l-5-3.86a2.48,2.48,0,0,0-3.49.44l-6,7.75a2.48,2.48,0,0,0,.44,3.49l5,3.86L127,178.65a2.49,2.49,0,0,0,.44,3.5l23.23,18m-13.69-34.37-3-2.34,3-3.81,3,2.34Zm76.34-14.61a17.35,17.35,0,1,1-24.35,3.09A17.37,17.37,0,0,1,213.28,151.17Zm-32.83,11.3a22.43,22.43,0,0,0,.47,7.53l-6.87-5.33A16.83,16.83,0,0,0,180.45,162.47Zm-1.32-23.86a11.86,11.86,0,1,1-16.64,2.11A11.87,11.87,0,0,1,179.13,138.61Zm16.59,60.69L187,210.52l-5.58,7.2-24.48-19h0l-.05,0h0l-24.48-19,6.93-8.94,6-7.75,6.93-8.94,49,38Zm3,28.46-6.82-15.36,6.87-8.87,16.58,2.77Z"/><path d="M176.5,142a7.57,7.57,0,1,0,1.35,10.62A7.58,7.58,0,0,0,176.5,142ZM170,150.42a3.09,3.09,0,1,1,4.32-.55A3.09,3.09,0,0,1,170,150.42Z" style="fill:#ed3424"/><path d="M209.3,156.29a10.87,10.87,0,1,0,1.94,15.25A10.87,10.87,0,0,0,209.3,156.29ZM199,169.54a5.89,5.89,0,1,1,8.26-1A5.91,5.91,0,0,1,199,169.54Z" style="fill:#ed3424"/><path d="M178.18,183.34l-21.42-16.59a2.37,2.37,0,0,0-3.32.42l-8.08,10.43a2.37,2.37,0,0,0,.42,3.32l21.41,16.59a2.37,2.37,0,0,0,3.33-.42l8.08-10.43A2.37,2.37,0,0,0,178.18,183.34Zm-10,9-17.67-13.69,5.18-6.69,17.67,13.7-5.18,6.68Z"/><circle cx="185.53" cy="195.19" r="2.49"/><circle cx="180.5" cy="201.68" r="2.49"/><line x1="146.78" y1="294.96" x2="146.78" y2="210.77" style="fill:none;stroke:#000;stroke-miterlimit:10;stroke-width:6px"/><polyline points="145.9 452.09 145.9 533.35 195.24 580.69 661.98 580.69" style="fill:none;stroke:#000;stroke-miterlimit:10;stroke-width:6px"/><path d="M286,470.5c-6.13,0-7.55-3.18-7.55-9,0-6.14,1.55-9.14,7.45-9.14a7.74,7.74,0,0,1,4.3,1L289,456.47a7.84,7.84,0,0,0-3.12-.59c-2.7,0-3.18,1.69-3.18,5.39s.45,5.68,3.68,5.68a11.16,11.16,0,0,0,3.15-.35l.8,3.25A11.15,11.15,0,0,1,286,470.5Z"/><path d="M301,470.25v-1.38a4.41,4.41,0,0,1-3.45,1.7c-4.28,0-4.08-2.3-4.08-5.4V456.6h4.15v8.22c0,1.88.18,2.2,1.33,2.2a3.4,3.4,0,0,0,2.05-.75V456.6h4.17v13.65Z"/><path d="M313.47,470.5a18.15,18.15,0,0,1-5-.53l.45-3.15a30.66,30.66,0,0,0,4.12.33c2.1,0,2.85-.33,2.85-.9,0-1.73-7.37-.25-7.37-5.68,0-2.95,3.27-4.27,6.25-4.27a13.7,13.7,0,0,1,4.6.72l-.7,3a15.83,15.83,0,0,0-3.78-.45c-1.42,0-2.2.4-2.2.9,0,1.85,7.33.75,7.33,5.57C320.05,469.67,315.77,470.5,313.47,470.5Z"/><path d="M332,470.52c-2.62,0-6.2.13-6.2-4.52v-6.35H323v-3h2.75v-2.8h4.15v2.8h5v3h-5V466c0,1,.88,1.08,2,1.08.93,0,3.2-.2,3.2-.2l.4,3.2A15.79,15.79,0,0,1,332,470.52Z"/><path d="M344.12,470.55c-4.5,0-5.85-2.73-5.85-7,0-4.53,1.73-7.3,6.05-7.3,4.85,0,5.8,2.72,5.8,7.17C350.12,468.07,348.32,470.55,344.12,470.55Zm.15-11c-1.77,0-1.8,1.67-1.8,3.9s.13,3.77,1.83,3.77,1.55-1.47,1.55-3.8S346,459.55,344.27,459.55Z"/><path d="M362.4,470.25v-9.73c0-1.22,0-1.65-.78-1.65a1.14,1.14,0,0,0-.77.3,10.12,10.12,0,0,1,0,1.23v9.85h-3.28v-10c0-.9,0-1.4-.72-1.4a1,1,0,0,0-.75.45v10.93h-3.3V456.6h3.3v1.3a2.72,2.72,0,0,1,2.45-1.6,2,2,0,0,1,2,1.7,2.8,2.8,0,0,1,2.42-1.7c2.25,0,2.63,1.05,2.63,3.67v10.28Z"/><path d="M392.15,470.25v-9.08l.4-4.65h-.18l-1,3.88-.85,3.35h-3.08l-.7-3.38-.77-3.9h-.18l.4,4.7v9.08h-3.3l.25-17.67h4.3l.93,4.54.57,3.6h.18l.87-3.62,1.2-4.52h4l.27,17.67Z"/><path d="M404.12,470.55c-4.5,0-5.85-2.73-5.85-7,0-4.53,1.73-7.3,6.05-7.3,4.85,0,5.8,2.72,5.8,7.17C410.12,468.07,408.32,470.55,404.12,470.55Zm.15-11c-1.77,0-1.8,1.67-1.8,3.9s.13,3.77,1.83,3.77,1.55-1.47,1.55-3.8S406,459.55,404.27,459.55Z"/><path d="M422,470.52c-2.62,0-6.2.13-6.2-4.52v-6.35H413v-3h2.75v-2.8h4.15v2.8h5v3h-5V466c0,1,.88,1.08,2,1.08.93,0,3.2-.2,3.2-.2l.4,3.2A15.86,15.86,0,0,1,422,470.52Z"/><path d="M434.12,470.55c-4.5,0-5.85-2.73-5.85-7,0-4.53,1.73-7.3,6.05-7.3,4.85,0,5.8,2.72,5.8,7.17C440.12,468.07,438.32,470.55,434.12,470.55Zm.15-11c-1.77,0-1.8,1.67-1.8,3.9s.13,3.77,1.83,3.77,1.55-1.47,1.55-3.8S436,459.55,434.27,459.55Z"/><path d="M455.47,460.1a8.17,8.17,0,0,0-1.88-.15,4.35,4.35,0,0,0-3,1.05V467h4.49v3.3H443.32V467h3.1v-7.3h-3.05v-3h7.23v1.82a4.51,4.51,0,0,1,4-2.1,4.67,4.67,0,0,1,1.58.2Z"/><path d="M458.77,470.25V467h3.9v-7.3H459v-3h7.8V467h3.75v3.3Zm5.92-15-2.87-2.9,2.87-2.87,2.88,2.87Z"/><path d="M473.32,470.25v-2.73l6.9-7.57h-6.5V456.6h11.4v2.65l-7,7.7h7.1v3.3Z"/><path d="M495.07,470.47c-4.12,0-6.65-1.4-6.65-6.85s2.18-7.35,6.3-7.35c4.3,0,5.35,3.2,5.35,7.33v1.5h-7.5c.15,1.77,1.3,1.87,2.78,1.87a28.28,28.28,0,0,0,4.24-.32l.5,3.17A18.53,18.53,0,0,1,495.07,470.47Zm-.67-11c-1.18,0-1.6.77-1.7,2.8h3.12C495.82,460.15,495.42,459.45,494.4,459.45Z"/><path d="M510.79,470.25V469a3.7,3.7,0,0,1-2.85,1.4c-2.45,0-4.87-1.3-4.87-7.22,0-4.68,2.28-7,6.42-7a3.77,3.77,0,0,1,1.3.15v-5H515v18.85Zm0-10.78a4.65,4.65,0,0,0-1.22-.17c-2.1,0-2.35,1.6-2.35,4,0,3,.6,3.7,1.8,3.7a4.08,4.08,0,0,0,1.77-.42Z"/><path d="M283.17,495.25h-.55v5h-4.27V482.58h6.07c4,0,5.88,2.32,5.88,6.27C290.3,492.32,288.45,495.25,283.17,495.25Zm.5-9.35h-1.05V492h.7c2.65,0,2.6-1.37,2.6-3S286,485.9,283.67,485.9Z"/><path d="M293.12,500.25V497h4.08v-12.5h-3.85V481.4h8V497h4.07v3.3Z"/><path d="M320.52,500.35c-1.85.1-4.17,0-4.62-1.43a3.8,3.8,0,0,1-3,1.5c-3,0-4.62-1.3-4.62-4,0-3.45,3.15-4,5.85-4h1.4V491.2c0-1.2-.78-1.4-2.48-1.4a12.51,12.51,0,0,0-3.35.5l-.82-3.13a14.29,14.29,0,0,1,4.77-.9c2.9,0,5.93.18,5.93,4.13v6.22c0,.45.32.55,1.12.58Zm-5-5.68-1.05.05c-2.15.1-2.13.83-2.13,1.43s.35,1.07,1.13,1.07a5.2,5.2,0,0,0,2-.42Z"/><path d="M332,500.52c-2.62,0-6.2.13-6.2-4.52v-6.35H323v-3h2.75v-2.8h4.15v2.8h5v3h-5V496c0,1,.88,1.08,2,1.08.93,0,3.2-.2,3.2-.2l.4,3.2A15.79,15.79,0,0,1,332,500.52Z"/><path d="M350.62,484.83a18.08,18.08,0,0,0-3.32-.33c-1,0-1.48.58-1.48,1.65v.45h4.35v3h-4.35V497h4.35v3.3h-11.8V497h3.28v-7.3h-3.28v-3h3.28v-.7c0-4.22,2.67-4.95,5.52-4.95a16.87,16.87,0,0,1,4.2.6Z"/><path d="M359.12,500.55c-4.5,0-5.85-2.73-5.85-7,0-4.53,1.73-7.3,6.05-7.3,4.85,0,5.8,2.72,5.8,7.17C365.12,498.07,363.32,500.55,359.12,500.55Zm.15-11c-1.77,0-1.8,1.67-1.8,3.9s.13,3.77,1.83,3.77,1.55-1.47,1.55-3.8S361,489.55,359.27,489.55Z"/><path d="M380.47,490.1a8.08,8.08,0,0,0-1.87-.15,4.36,4.36,0,0,0-3,1.05V497h4.5v3.3H368.32V497h3.1v-7.3h-3.05v-3h7.23v1.82a4.51,4.51,0,0,1,4-2.1,4.61,4.61,0,0,1,1.57.2Z"/><path d="M392.4,500.25v-9.73c0-1.22,0-1.65-.78-1.65a1.14,1.14,0,0,0-.77.3,10.12,10.12,0,0,1,0,1.23v9.85h-3.28v-10c0-.9,0-1.4-.72-1.4a1,1,0,0,0-.75.45v10.93h-3.3V486.6h3.3v1.3a2.72,2.72,0,0,1,2.45-1.6,2,2,0,0,1,2,1.7,2.8,2.8,0,0,1,2.42-1.7c2.25,0,2.62,1.05,2.62,3.67v10.28Z"/><path d="M715.56,614.88H690.94c-3.55,0-5.23-1.7-5.23-5.26V539.7c0-3.73,1.64-5.35,5.39-5.36h16.79c.1-.18.17-.25.17-.33.29-3.6.87-4.14,4.45-4.14h14.06c2.88,0,3.8.9,3.89,3.79,0,.16,0,.33.07.68h33.33c3.72,0,5.39,1.67,5.39,5.37,0,4.6,0,9.2,0,14,.57,0,1.06,0,1.55,0a4.45,4.45,0,0,1,4.39,4.56c0,2.81,0,5.62,0,8.43,0,3.09-1.73,4.82-4.81,4.9-.33,0-.66,0-1.06.08v2.79c4.15.61,4.37.87,4.37,5.13v12c0,2.89-.87,3.77-3.8,3.9-.16,0-.32,0-.65.08V597c0,4.3,0,8.61,0,12.91,0,3.19-1.8,5-5,5H739.4c0,.58,0,1.08,0,1.57a2.88,2.88,0,0,1-2.85,2.88q-9.07.06-18.15,0a2.84,2.84,0,0,1-2.83-2.88C715.54,616,715.56,615.53,715.56,614.88Zm22.35-15v-2.65c0-1,.37-1.71,1.43-1.74s1.56.7,1.57,1.74v2.59h3c0-.83,0-1.59,0-2.35,0-1,.21-1.91,1.45-2,1-.07,1.52.65,1.52,2q0,4.41,0,8.82c0,2.25-.26,2.51-2.47,2.52h-4.91v2.92a6.22,6.22,0,0,0,.66.07h24.29c1.31,0,1.82-.55,1.83-1.91,0-4.51,0-9,0-13.55,0-.28-.07-.56-.11-.93-3.34,0-6.62,0-9.89,0q-3.39,0-3.41-3.38,0-7.1,0-14.19a3,3,0,0,1,3.32-3.32c2.9,0,5.79,0,8.69,0h1.34v-3H745.84c-2.37,0-3.42-1.07-3.43-3.45q0-5.35,0-10.73c0-2.67,1-3.71,3.71-3.72h18.66c.45,0,.91,0,1.47-.06v-14c0-1.92-.4-2.32-2.31-2.32q-16.1,0-32.21,0h-1.27c0,4.42,0,8.64,0,12.85,0,2.45-1.06,3.53-3.47,3.54H711.64c-2.51,0-3.55-1.06-3.55-3.6,0-3.79,0-7.58,0-11.38,0-.44-.06-.89-.1-1.41h-1.4c-5.15,0-10.31,0-15.46,0-2,0-2.41.34-2.41,2.34v69.92c0,1.95.38,2.33,2.31,2.33h23.13c.45,0,.9,0,1.33-.06v-2.93c-1.89,0-3.71,0-5.53,0-1.32,0-1.84-.46-1.85-1.72,0-3.33,0-6.65,0-10,0-1,.43-1.69,1.5-1.67s1.48.7,1.47,1.7,0,1.75,0,2.61h3c0-.91,0-1.71,0-2.52,0-1,.37-1.79,1.5-1.79s1.48.81,1.47,1.83v2.47h3v-2.53c0-1,.4-1.79,1.54-1.77s1.45.74,1.46,1.72,0,1.75,0,2.62h3c0-1,0-1.84,0-2.72s.49-1.67,1.55-1.62,1.41.67,1.41,1.62,0,1.77,0,2.72h3c0-.91,0-1.75,0-2.6s.38-1.71,1.43-1.74,1.55.72,1.55,1.75v2.64Zm-10.53-67H711.16v17.74h16.22Zm43.28,44.75H755.88v14.74h14.78Zm-10.42-20.88H745.47v11.74h14.74v-4.32c-.41,0-.74-.06-1.08-.07-1.57,0-3.15,0-4.72,0a1.47,1.47,0,1,1-.08-2.94c.63,0,1.27,0,1.91,0h4Zm-23.92,59.48V609H718.59v7.27Zm27-47.66c2.58,0,5,.08,7.49-.06a2,2,0,0,0,1.3-1.39c.12-3,.11-6,0-9.07a1.82,1.82,0,0,0-1.22-1.31c-2.49-.13-5-.06-7.56-.06Zm-52.24,37.2h32.71v-2.76H711.1Z"/><path d="M739.4,574.65c0,2.85,0,5.71,0,8.56a3,3,0,0,1-3.32,3.34c-3.22,0-6.45-.14-9.68-.14-2.45,0-4.89.13-7.33.14s-3.51-1.1-3.51-3.52V566.16c0-2.34,1.11-3.5,3.41-3.49,3.25,0,6.5.14,9.75.15,2.44,0,4.88-.07,7.32-.14a3,3,0,0,1,3.36,3.15C739.42,568.77,739.4,571.71,739.4,574.65Zm-3-9H718.63v17.85h17.78Z" style="fill:#ec1e24"/><path d="M763.25,604.38a4.43,4.43,0,0,1-4.4,4.52,4.47,4.47,0,1,1,4.4-4.52Zm-4.1-1.61-.59,0c-.41.54-1,1-1.19,1.62-.19.85.42,1.46,1.31,1.52a1.28,1.28,0,0,0,1.54-1.41C760.16,603.87,759.53,603.33,759.15,602.77Z"/><path d="M700.6,604.51a4.41,4.41,0,0,1-4.52,4.39,4.47,4.47,0,1,1,4.52-4.39Zm-4.22-1.77-.59,0c-.37.56-1,1.1-1.06,1.7-.13.86.53,1.39,1.42,1.43s1.69-.77,1.44-1.54A6.22,6.22,0,0,0,696.38,602.74Z"/><path d="M758.85,540.32a4.47,4.47,0,0,1-.12,8.94,4.47,4.47,0,1,1,.12-8.94Zm.22,2.78h-.59c-.39.55-1,1.07-1.11,1.67-.14.85.49,1.43,1.38,1.45a1.28,1.28,0,0,0,1.47-1.49C760.13,544.15,759.48,543.65,759.07,543.1Z"/><path d="M696.14,540.32a4.47,4.47,0,0,1,0,8.94,4.47,4.47,0,1,1,0-8.94Zm.24,2.77-.59,0c-.38.57-1,1.11-1.06,1.71-.12.85.51,1.43,1.42,1.42a1.29,1.29,0,0,0,1.43-1.54C697.47,544.11,696.8,543.62,696.38,543.09Z"/><path d="M691.49,583.23c.56-.39,1.08-1,1.69-1.1.83-.13,1.42.48,1.46,1.4s-.74,1.7-1.52,1.48a6.21,6.21,0,0,1-1.65-1.18Z"/><path d="M694.87,565.94c-.55.41-1,1-1.66,1.16-.85.17-1.42-.46-1.5-1.36s.68-1.73,1.46-1.52a6.17,6.17,0,0,1,1.69,1.13Z"/><path d="M693.52,587.85c.38.57,1,1.1,1.07,1.71.11.92-.58,1.48-1.54,1.42a1.27,1.27,0,0,1-1.32-1.52c.13-.6.78-1.09,1.2-1.63Z"/><path d="M693.54,575.92c.37.56,1,1.1,1.06,1.71.12.85-.53,1.4-1.43,1.43s-1.69-.76-1.45-1.54a6.37,6.37,0,0,1,1.22-1.63Z"/><path d="M693.4,593.79c.42.54,1.06,1,1.19,1.63.19.84-.41,1.43-1.31,1.53s-1.75-.63-1.56-1.42a5.88,5.88,0,0,1,1.09-1.71Z"/><path d="M694.87,571.92c-.55.4-1.06,1-1.67,1.13-.94.16-1.5-.52-1.48-1.47a1.24,1.24,0,0,1,1.46-1.37c.61.12,1.13.72,1.69,1.11Z"/><path d="M691.48,559.36c.56-.38,1.09-1,1.7-1.08.92-.13,1.5.54,1.45,1.5a1.26,1.26,0,0,1-1.51,1.33c-.6-.12-1.1-.74-1.65-1.14Z"/><path d="M693.42,552c.41.54,1,1,1.18,1.63.18.86-.43,1.46-1.33,1.52s-1.64-.54-1.53-1.44c.06-.6.7-1.13,1.08-1.7Z"/><path d="M699.44,593.8c.39.56,1,1.07,1.1,1.67.16.94-.51,1.51-1.47,1.48s-1.52-.62-1.35-1.48c.12-.6.72-1.12,1.11-1.67Z"/><path d="M697.46,589.23c.54-.39,1-1,1.64-1.12.92-.15,1.51.5,1.48,1.46s-.6,1.53-1.45,1.38c-.6-.11-1.11-.72-1.66-1.1Z"/><path d="M697.46,577.25c.56-.38,1.09-1,1.69-1.08.86-.13,1.43.51,1.44,1.41s-.59,1.61-1.52,1.43c-.59-.11-1.09-.75-1.63-1.15Z"/><path d="M700.81,572c-.56.38-1.08,1-1.69,1.08a1.25,1.25,0,0,1-1.44-1.39c0-1,.58-1.61,1.51-1.44.59.11,1.09.74,1.64,1.14Z"/><path d="M699.44,558c.39.55,1,1.06,1.11,1.67.16.86-.46,1.45-1.36,1.47s-1.63-.54-1.47-1.48c.1-.6.72-1.11,1.11-1.66Z"/><path d="M697.45,553.41c.56-.39,1.07-1,1.67-1.1a1.25,1.25,0,0,1,1.46,1.37c0,1-.56,1.62-1.49,1.47-.59-.1-1.1-.74-1.64-1.13Z"/><path d="M700.83,583.79c-.54.42-1,1.07-1.61,1.2-.84.19-1.46-.38-1.52-1.3s.48-1.66,1.4-1.56c.6.06,1.14.69,1.7,1.06Z"/><path d="M700.83,565.89c-.54.42-1,1.07-1.61,1.2-.84.19-1.46-.38-1.52-1.3s.47-1.66,1.4-1.56c.6.06,1.14.69,1.7,1.06Z"/><path d="M721.51,543.19c0-.89,0-1.78,0-2.67s.46-1.67,1.5-1.67,1.48.7,1.49,1.68c0,1.87,0,3.73,0,5.59,0,1-.53,1.66-1.57,1.61a1.43,1.43,0,0,1-1.42-1.62C721.5,545.14,721.51,544.16,721.51,543.19Z"/><path d="M714.06,543.23v-2.8a1.42,1.42,0,0,1,1.45-1.59,1.39,1.39,0,0,1,1.5,1.53c0,1.94,0,3.89,0,5.84a1.39,1.39,0,0,1-1.51,1.53,1.42,1.42,0,0,1-1.45-1.59Z"/><path d="M763.26,583.54a4,4,0,0,1-1.63,0c-.52-.26-1.24-.87-1.22-1.3a2,2,0,0,1,1.11-1.51,10,10,0,0,1,3.53,0,1.81,1.81,0,0,1,1.1,1.39,2.42,2.42,0,0,1-1.26,1.43c-.43.23-1.08,0-1.63,0Z"/><path d="M763.2,586.56c.5,0,1,0,1.52,0a1.39,1.39,0,0,1,1.51,1.51,1.37,1.37,0,0,1-1.48,1.41c-1,0-2,0-2.92,0a1.46,1.46,0,1,1,0-2.92C762.26,586.55,762.73,586.57,763.2,586.56Z"/><polyline points="400.98 505.28 407.66 511.96 611.58 511.96 659.66 471.05 659.66 373.65 671.27 362.05" style="fill:none;stroke:#000;stroke-miterlimit:10;stroke-width:6px"/><path d="M693.47,41.85l-2.5-6h-.87v6h-4.27V24.17h6.07c3.87,0,5.87,2.43,5.87,5.78a5.34,5.34,0,0,1-2.9,5l3.43,6.88ZM691.15,27.5h-1v5.07h.7a2.3,2.3,0,0,0,2.6-2.52C693.4,28.67,693.05,27.5,691.15,27.5Z"/><path d="M712.85,42c-1.85.1-4.18,0-4.63-1.43a3.78,3.78,0,0,1-3,1.5c-3,0-4.62-1.3-4.62-4,0-3.45,3.15-4,5.84-4h1.4V32.8c0-1.2-.77-1.4-2.47-1.4a12.51,12.51,0,0,0-3.35.5l-.82-3.13a14.29,14.29,0,0,1,4.77-.9c2.9,0,5.92.18,5.92,4.13v6.22c0,.45.33.55,1.13.58Zm-5-5.68-1.05,0c-2.15.1-2.12.83-2.12,1.43s.35,1.07,1.13,1.07a5.2,5.2,0,0,0,2-.42Z"/><path d="M720.8,42.1a18.15,18.15,0,0,1-5-.53l.45-3.15a30.66,30.66,0,0,0,4.12.33c2.1,0,2.85-.33,2.85-.9,0-1.73-7.37-.25-7.37-5.68,0-3,3.27-4.27,6.24-4.27a13.62,13.62,0,0,1,4.6.72l-.7,3a15.69,15.69,0,0,0-3.77-.45c-1.42,0-2.2.4-2.2.9,0,1.85,7.32.75,7.32,5.57C727.37,41.27,723.1,42.1,720.8,42.1Z"/><path d="M736.25,42.05c-.63,0-.68,0-1.18,0v5.34H730.9V28.2h4.15v1.22a4.39,4.39,0,0,1,3.05-1.55c3.07,0,4.55,1.7,4.55,6.53C742.65,40.1,740.22,42.05,736.25,42.05Zm2.2-7.53c0-2.45-.38-3.1-1.83-3.1a2.92,2.92,0,0,0-1.57.4v7a4.86,4.86,0,0,0,1.27.1c2.15,0,2.1-1.8,2.1-4.35Z"/><path d="M746.1,41.85v-3.3H750v-7.3h-3.65V28.2h7.8V38.55h3.75v3.3Zm5.92-15L749.15,24,752,21.08,754.9,24Z"/><path d="M765.8,42.1a18.06,18.06,0,0,1-5-.53l.45-3.15a30.54,30.54,0,0,0,4.12.33c2.1,0,2.85-.33,2.85-.9,0-1.73-7.37-.25-7.37-5.68,0-3,3.27-4.27,6.24-4.27a13.62,13.62,0,0,1,4.6.72l-.7,3a15.69,15.69,0,0,0-3.77-.45c-1.43,0-2.2.4-2.2.9,0,1.85,7.32.75,7.32,5.57C772.37,41.27,768.1,42.1,765.8,42.1Z"/><image width="1200" height="1200" transform="translate(516.7 184.51) scale(0.06)" xlink:href="../../../../Downloads/kisspng-computer-icons-accelerometer-desktop-wallpaper-gyroscope-5b36b1d8639d96.656309531530311128408.png"/><path d="M560.45,107.93H578a1.49,1.49,0,0,0,1.49-1.49V99.67h3.77a1.49,1.49,0,0,0,1.5-1.49V92.32a1.49,1.49,0,0,0-1.5-1.49h-3.77V84.06a1.5,1.5,0,0,0-1.49-1.5h-1.36A10.08,10.08,0,1,0,561.76,69a13.37,13.37,0,1,0-21.4,13.52h-2.43a1.5,1.5,0,0,0-1.49,1.5V88.5l-9.64-5.19a1.5,1.5,0,0,0-2.2,1.32v21.24a1.49,1.49,0,0,0,1.49,1.49,1.47,1.47,0,0,0,.71-.18l9.64-5.19v4.45a1.49,1.49,0,0,0,1.49,1.49h17.6m24-14.12h2.28v2.88h-2.28ZM559.15,72.18a10.39,10.39,0,1,1-10.38-10.39A10.39,10.39,0,0,1,559.15,72.18Zm3.23,10.38h-5.21a13.06,13.06,0,0,0,3-3.39A10,10,0,0,0,562.38,82.56Zm14.24-7.09a7.1,7.1,0,1,1-7.09-7.1A7.1,7.1,0,0,1,576.62,75.47Zm-37.2,10.08h37.13V105H539.42V85.55Zm-11.84,1.57,8.86,4.77v6.72l-8.86,4.77Z"/><path d="M565,75.47a4.53,4.53,0,1,0,4.53-4.53A4.54,4.54,0,0,0,565,75.47Zm2.68,0a1.85,1.85,0,1,1,1.85,1.84A1.85,1.85,0,0,1,567.68,75.47Z" style="fill:#f24c2f"/><path d="M542.26,72.18a6.51,6.51,0,1,0,6.51-6.51A6.51,6.51,0,0,0,542.26,72.18Zm3,0a3.53,3.53,0,1,1,3.53,3.52A3.53,3.53,0,0,1,545.24,72.18Z" style="fill:#f24c2f"/><path d="M552.16,91.3v7.9a1.41,1.41,0,0,0,1.42,1.41h16.21a1.42,1.42,0,0,0,1.42-1.41V91.3a1.43,1.43,0,0,0-1.42-1.42H553.58A1.42,1.42,0,0,0,552.16,91.3ZM555,97.78V92.72h13.39v5.06Z"/><circle cx="545.76" cy="92.79" r="1.49"/><circle cx="545.76" cy="97.71" r="1.49"/><path d="M489.59,107.26h17.59a1.49,1.49,0,0,0,1.5-1.49V99h3.77a1.49,1.49,0,0,0,1.49-1.49V91.65a1.5,1.5,0,0,0-1.49-1.5h-3.77V83.39a1.5,1.5,0,0,0-1.5-1.5h-1.36a10.07,10.07,0,1,0-14.91-13.52A13.37,13.37,0,1,0,469.5,81.89h-2.42a1.49,1.49,0,0,0-1.49,1.49v4.45l-9.65-5.19A1.49,1.49,0,0,0,453.75,84V105.2a1.48,1.48,0,0,0,.72,1.28,1.51,1.51,0,0,0,.77.21,1.46,1.46,0,0,0,.7-.18l9.65-5.19v4.45a1.49,1.49,0,0,0,1.49,1.49h17.59m24-14.12H511V96h-2.28ZM488.3,71.51a10.39,10.39,0,1,1-10.39-10.39A10.4,10.4,0,0,1,488.3,71.51Zm3.22,10.38h-5.2a13.61,13.61,0,0,0,3-3.39A10.17,10.17,0,0,0,491.52,81.89Zm14.25-7.09a7.1,7.1,0,1,1-7.1-7.1A7.1,7.1,0,0,1,505.77,74.8Zm-37.2,10.08h37.12v19.4H468.57V84.88Zm-11.84,1.57,8.86,4.77v6.72l-8.86,4.76Z"/><path d="M494.14,74.8a4.53,4.53,0,1,0,4.53-4.53A4.54,4.54,0,0,0,494.14,74.8Zm2.69,0a1.85,1.85,0,1,1,1.84,1.85A1.84,1.84,0,0,1,496.83,74.79Z" style="fill:#f24c2f"/><path d="M471.41,71.51a6.51,6.51,0,1,0,6.5-6.51A6.51,6.51,0,0,0,471.41,71.51Zm3,0A3.52,3.52,0,1,1,477.91,75,3.53,3.53,0,0,1,474.39,71.51Z" style="fill:#f24c2f"/><path d="M481.31,90.63v7.9a1.41,1.41,0,0,0,1.41,1.41h16.22a1.41,1.41,0,0,0,1.41-1.41v-7.9a1.42,1.42,0,0,0-1.41-1.42H482.72A1.42,1.42,0,0,0,481.31,90.63Zm2.83,6.48V92.05h13.38v5.06Z"/><circle cx="474.9" cy="92.12" r="1.49"/><circle cx="474.9" cy="97.03" r="1.49"/><path d="M454.3,47.69V45.43C455.78,44,460,40,460,38.05c0-1.56-.6-1.94-1.74-1.94a8.07,8.07,0,0,0-2.92.54l-1-2.32a7.2,7.2,0,0,1,4.1-.94c4.16,0,5,2.4,5,4.4,0,2.92-2.56,5.38-4.82,7.24h5.28v2.66Z"/><path d="M473.08,42.23l3.44,5.46h-3.7L471,44l-1.8,3.66h-3.7l3.44-5.46-3.44-5.46h3.7l1.8,3.46,1.82-3.46h3.7Z"/><path d="M496.4,47.69V41.87h-3.08v5.82h-3.4V33.55h3.4v5.74h3.08V33.55h3.4V47.69Z"/><path d="M507.5,47.87c-3.3,0-5.32-1.12-5.32-5.48s1.74-5.88,5-5.88,4.28,2.56,4.28,5.86v1.2h-6c.12,1.42,1,1.5,2.22,1.5a22.79,22.79,0,0,0,3.4-.26l.4,2.54A14.88,14.88,0,0,1,507.5,47.87ZM507,39.05c-.94,0-1.28.62-1.36,2.24h2.5C508.1,39.61,507.78,39.05,507,39.05Z"/><path d="M523.86,47.77c-1.48.08-3.34,0-3.7-1.14a3,3,0,0,1-2.42,1.2c-2.4,0-3.7-1-3.7-3.22,0-2.76,2.52-3.22,4.68-3.22h1.12v-.94c0-1-.62-1.12-2-1.12a10,10,0,0,0-2.68.4l-.66-2.5a11.34,11.34,0,0,1,3.82-.72c2.32,0,4.74.14,4.74,3.3v5c0,.36.26.44.9.46Zm-4-4.54-.84,0c-1.72.08-1.7.66-1.7,1.14s.28.86.9.86a4.18,4.18,0,0,0,1.62-.34Z"/><path d="M532.08,47.69v-1a3,3,0,0,1-2.28,1.12c-2,0-3.9-1-3.9-5.78,0-3.74,1.82-5.6,5.14-5.6a3,3,0,0,1,1,.12v-4h3.34V47.69Zm0-8.62a3.54,3.54,0,0,0-1-.14c-1.68,0-1.88,1.28-1.88,3.18,0,2.38.48,3,1.44,3a3.3,3.3,0,0,0,1.42-.34Z"/><path d="M546.74,39.67a6.38,6.38,0,0,0-2.48-.46c-1.38,0-2.72.62-2.72,3,0,2.1.52,3,3.14,3A11.13,11.13,0,0,0,547,45l.44,2.5a12.22,12.22,0,0,1-3.16.38c-4.62,0-6.21-1.66-6.21-5.74,0-3.4,2.29-5.64,6-5.64a7.1,7.1,0,0,1,3.5.76Z"/><path d="M559.86,47.77c-1.48.08-3.34,0-3.7-1.14a3,3,0,0,1-2.42,1.2c-2.41,0-3.71-1-3.71-3.22,0-2.76,2.53-3.22,4.69-3.22h1.12v-.94c0-1-.62-1.12-2-1.12a10.12,10.12,0,0,0-2.69.4l-.66-2.5a11.4,11.4,0,0,1,3.83-.72c2.32,0,4.74.14,4.74,3.3v5c0,.36.26.44.9.46Zm-4-4.54-.84,0c-1.72.08-1.7.66-1.7,1.14s.28.86.9.86a4.18,4.18,0,0,0,1.62-.34Z"/><path d="M569.36,47.69V39.91c0-1,0-1.32-.62-1.32a.93.93,0,0,0-.62.24,8,8,0,0,1,0,1v7.88h-2.62v-8c0-.72,0-1.12-.58-1.12a.81.81,0,0,0-.6.36v8.74h-2.65V36.77h2.65v1a2.18,2.18,0,0,1,2-1.28A1.58,1.58,0,0,1,568,37.89a2.25,2.25,0,0,1,1.94-1.36c1.8,0,2.1.84,2.1,2.94v8.22Z"/><path d="M578.22,47.89a14.58,14.58,0,0,1-4-.42l.36-2.52a24.56,24.56,0,0,0,3.31.26c1.68,0,2.28-.26,2.28-.72,0-1.38-5.91-.2-5.91-4.54,0-2.36,2.63-3.42,5-3.42a10.93,10.93,0,0,1,3.68.58l-.56,2.42a12.61,12.61,0,0,0-3-.36c-1.14,0-1.76.32-1.76.72,0,1.48,5.86.6,5.86,4.46C583.48,47.23,580.06,47.89,578.22,47.89Z"/><path d="M458.13,165.2v-2.64h3v-8.84h-3v-2.66h9.44v2.66h-3v8.84h3v2.64Z"/><path d="M470.31,165.2v-2.26c1.48-1.44,5.68-5.46,5.68-7.38,0-1.56-.6-1.94-1.74-1.94a8.07,8.07,0,0,0-2.92.54l-1-2.32a7.2,7.2,0,0,1,4.1-.94c4.16,0,5,2.4,5,4.4,0,2.92-2.56,5.38-4.82,7.24h5.28v2.66Z"/><path d="M488.21,165.4c-4.9,0-6-2.54-6-7.18,0-4.92,1.24-7.32,6-7.32a6.16,6.16,0,0,1,3.44.82l-.9,2.46a6.3,6.3,0,0,0-2.5-.48c-2.16,0-2.54,1.36-2.54,4.32s.36,4.54,2.94,4.54a8.75,8.75,0,0,0,2.52-.28l.64,2.6A8.82,8.82,0,0,1,488.21,165.4Z"/><path d="M513.17,165.2v-7.26l.32-3.72h-.14l-.78,3.1-.68,2.68h-2.46l-.56-2.7-.62-3.12h-.14l.32,3.76v7.26h-2.64l.2-14.14h3.44l.74,3.64.46,2.88h.14l.7-2.9,1-3.62h3.2l.22,14.14Z"/><path d="M522.75,165.44c-3.6,0-4.69-2.18-4.69-5.6,0-3.62,1.39-5.84,4.85-5.84,3.88,0,4.64,2.18,4.64,5.74C527.55,163.46,526.11,165.44,522.75,165.44Zm.12-8.8c-1.42,0-1.44,1.34-1.44,3.12s.1,3,1.46,3,1.24-1.18,1.24-3S524.25,156.64,522.87,156.64Z"/><path d="M537,165.42c-2.1,0-5,.1-5-3.62v-5.08h-2.21v-2.44h2.21V152h3.32v2.24h4v2.44h-4v5.06c0,.8.7.86,1.6.86.74,0,2.56-.16,2.56-.16l.32,2.56A12.44,12.44,0,0,1,537,165.42Z"/><path d="M542.46,165.2v-2.64h3.13v-5.84h-2.93v-2.44h6.25v8.28h3v2.64Zm4.75-12-2.3-2.32,2.3-2.3,2.3,2.3Z"/><path d="M558.75,165.44c-3.61,0-4.69-2.18-4.69-5.6,0-3.62,1.38-5.84,4.85-5.84,3.88,0,4.64,2.18,4.64,5.74C563.55,163.46,562.11,165.44,558.75,165.44Zm.12-8.8c-1.42,0-1.44,1.34-1.44,3.12s.1,3,1.46,3,1.24-1.18,1.24-3S560.25,156.64,558.87,156.64Z"/><path d="M572.23,165.2v-6.58c0-1.5-.14-1.76-1.06-1.76a2.39,2.39,0,0,0-1.64.6v7.74h-3.35V154.28h3.35v1.1a3.54,3.54,0,0,1,2.76-1.42c3.42,0,3.26,1.9,3.26,4.38v6.86Z"/><path d="M462.31,186.42a11.64,11.64,0,0,1-4.28-.56l.68-2.7a12,12,0,0,0,3.54.46c1.44,0,1.9-.62,1.9-1.38,0-2.3-5.94-1.5-5.94-6.48,0-2.72,2.38-3.82,4.88-3.82a9.19,9.19,0,0,1,3.88.74l-1,2.52a7.59,7.59,0,0,0-2.74-.52c-1.42,0-1.68.46-1.68,1.06,0,2.1,6.06,1.88,6.06,6.38C467.59,185.22,465.23,186.42,462.31,186.42Z"/><path d="M475.51,186.38c-3.3,0-5.32-1.12-5.32-5.48s1.74-5.88,5-5.88,4.28,2.56,4.28,5.86v1.2h-6c.12,1.42,1,1.5,2.22,1.5a22.79,22.79,0,0,0,3.4-.26l.4,2.54A14.88,14.88,0,0,1,475.51,186.38Zm-.54-8.82c-.94,0-1.28.62-1.36,2.24h2.5C476.11,178.12,475.79,177.56,475,177.56Z"/><path d="M488.23,186.2v-6.58c0-1.5-.14-1.76-1.06-1.76a2.39,2.39,0,0,0-1.64.6v7.74h-3.34V175.28h3.34v1.1a3.54,3.54,0,0,1,2.76-1.42c3.42,0,3.26,1.9,3.26,4.38v6.86Z"/><path d="M498.23,186.4a14.54,14.54,0,0,1-4-.42l.36-2.52a24.43,24.43,0,0,0,3.3.26c1.68,0,2.28-.26,2.28-.72,0-1.38-5.9-.2-5.9-4.54,0-2.36,2.62-3.42,5-3.42a10.93,10.93,0,0,1,3.68.58l-.56,2.42a12.61,12.61,0,0,0-3-.36c-1.14,0-1.76.32-1.76.72,0,1.48,5.86.6,5.86,4.46C503.49,185.74,500.07,186.4,498.23,186.4Z"/><path d="M510.75,186.44c-3.6,0-4.68-2.18-4.68-5.6,0-3.62,1.38-5.84,4.84-5.84,3.88,0,4.64,2.18,4.64,5.74C515.55,184.46,514.11,186.44,510.75,186.44Zm.12-8.8c-1.42,0-1.44,1.34-1.44,3.12s.1,3,1.46,3,1.24-1.18,1.24-3S512.25,177.64,510.87,177.64Z"/><path d="M527.83,178.08a6.5,6.5,0,0,0-1.5-.12,3.5,3.5,0,0,0-2.4.84v4.76h3.6v2.64H518.1v-2.64h2.49v-5.84h-2.44v-2.44h5.78v1.46a3.61,3.61,0,0,1,3.2-1.68,3.71,3.71,0,0,1,1.26.16Z"/><polyline points="601.08 219.85 671.27 219.85 696.17 219.85 724.1 247.77 724.1 267.93" style="fill:none;stroke:#000;stroke-miterlimit:10;stroke-width:6px"/><line x1="601.08" y1="101.94" x2="671.28" y2="101.94" style="fill:none;stroke:#000;stroke-miterlimit:10;stroke-width:6px"/><line x1="601.08" y1="88.45" x2="671.28" y2="88.45" style="fill:none;stroke:#000;stroke-miterlimit:10;stroke-width:6px"/><path d="M715.56,134.78H690.94c-3.55,0-5.23-1.7-5.23-5.26V59.59c0-3.72,1.64-5.35,5.39-5.35h16.79c.1-.18.17-.25.17-.33.29-3.6.87-4.14,4.45-4.14,4.69,0,9.38,0,14.06,0,2.88,0,3.8.9,3.89,3.79,0,.16,0,.33.07.68h33.33c3.72,0,5.39,1.67,5.39,5.37,0,4.6,0,9.2,0,14,.57,0,1.06,0,1.55,0a4.45,4.45,0,0,1,4.39,4.56c0,2.81,0,5.62,0,8.43,0,3.08-1.73,4.82-4.81,4.9-.33,0-.66,0-1.06.08v2.78c4.15.62,4.37.88,4.37,5.14v12c0,2.89-.87,3.77-3.8,3.9-.16,0-.32,0-.65.08v1.38c0,4.3,0,8.61,0,12.91,0,3.19-1.8,5-5,5H739.4c0,.58,0,1.08,0,1.57a2.88,2.88,0,0,1-2.85,2.88q-9.07.06-18.15,0a2.84,2.84,0,0,1-2.83-2.88C715.54,135.89,715.56,135.43,715.56,134.78Zm22.35-15v-2.65c0-1,.37-1.71,1.43-1.74s1.56.7,1.57,1.74v2.59h3c0-.83,0-1.59,0-2.35,0-1,.21-1.91,1.45-2,1-.07,1.52.65,1.52,2q0,4.41,0,8.82c0,2.25-.26,2.51-2.47,2.52h-4.91v2.92a6.22,6.22,0,0,0,.66.07h24.29c1.31,0,1.82-.55,1.83-1.91,0-4.51,0-9,0-13.55,0-.28-.07-.56-.11-.93-3.34,0-6.62,0-9.89,0-2.26,0-3.4-1.14-3.41-3.37q0-7.09,0-14.19a3,3,0,0,1,3.32-3.33c2.9,0,5.79,0,8.69,0h1.34v-3H745.84c-2.37,0-3.42-1.06-3.43-3.44q0-5.37,0-10.73c0-2.67,1-3.71,3.71-3.72h18.66c.45,0,.91,0,1.47-.06v-14c0-1.92-.4-2.32-2.31-2.32H730.46c0,4.43,0,8.65,0,12.86,0,2.45-1.06,3.53-3.47,3.54q-7.68,0-15.34,0c-2.51,0-3.55-1.06-3.55-3.6,0-3.79,0-7.58,0-11.38,0-.44-.06-.89-.1-1.42H691.12c-2,0-2.41.35-2.41,2.35v69.92c0,2,.38,2.33,2.31,2.33h23.13c.45,0,.9,0,1.33-.06v-2.93c-1.89,0-3.71,0-5.53,0-1.32,0-1.84-.46-1.85-1.72,0-3.33,0-6.65,0-10,0-1,.43-1.69,1.5-1.67s1.48.7,1.47,1.7,0,1.75,0,2.61h3c0-.91,0-1.71,0-2.52,0-1,.37-1.79,1.5-1.79s1.48.81,1.47,1.83v2.47h3v-2.53c0-1,.4-1.79,1.54-1.77s1.45.74,1.46,1.72,0,1.75,0,2.62h3c0-1,0-1.84,0-2.72s.49-1.67,1.55-1.62,1.41.67,1.41,1.62,0,1.77,0,2.72h3c0-.91,0-1.76,0-2.6,0-1,.38-1.71,1.43-1.74s1.55.72,1.55,1.75v2.64Zm-10.53-67H711.16V70.58h16.22Zm43.28,44.75H755.88v14.74h14.78ZM760.24,76.7H745.47V88.45h14.74V84.13c-.41,0-.74-.06-1.08-.07-1.57,0-3.15,0-4.72,0a1.39,1.39,0,0,1-1.55-1.5,1.38,1.38,0,0,1,1.47-1.44c.63,0,1.27,0,1.91,0h4Zm-23.92,59.49v-7.27H718.59v7.27Zm27-47.66c2.58,0,5,.08,7.49-.06a2,2,0,0,0,1.3-1.39c.12-3,.11-6,0-9.07a1.82,1.82,0,0,0-1.22-1.31c-2.49-.13-5-.06-7.56-.06Zm-52.24,37.2h32.71V123H711.1Z"/><path d="M739.4,94.55c0,2.85,0,5.71,0,8.56a3,3,0,0,1-3.32,3.34c-3.22,0-6.45-.14-9.68-.14-2.45,0-4.89.13-7.33.14s-3.51-1.11-3.51-3.52V86.06c0-2.34,1.11-3.5,3.41-3.49,3.25,0,6.5.14,9.75.15,2.44,0,4.88-.07,7.32-.14a3,3,0,0,1,3.36,3.15C739.42,88.67,739.4,91.61,739.4,94.55Zm-3-9H718.63v17.85h17.78Z" style="fill:#ec1e24"/><path d="M763.25,124.28a4.43,4.43,0,0,1-4.4,4.52,4.47,4.47,0,1,1,4.4-4.52Zm-4.1-1.61-.59,0c-.41.54-1,1-1.19,1.62-.19.85.42,1.46,1.31,1.52s1.64-.5,1.54-1.41C760.16,123.77,759.53,123.23,759.15,122.67Z"/><path d="M700.6,124.41a4.41,4.41,0,0,1-4.52,4.39,4.47,4.47,0,1,1,4.52-4.39Zm-4.22-1.77-.59,0c-.37.56-1,1.1-1.06,1.7-.13.86.53,1.39,1.42,1.43s1.69-.77,1.44-1.54A6.06,6.06,0,0,0,696.38,122.64Z"/><path d="M758.85,60.22a4.47,4.47,0,0,1-.12,8.94,4.47,4.47,0,1,1,.12-8.94Zm.22,2.78h-.59c-.39.55-1,1.07-1.11,1.67-.14.85.49,1.43,1.38,1.45a1.28,1.28,0,0,0,1.47-1.49C760.13,64.05,759.48,63.55,759.07,63Z"/><path d="M696.14,60.22a4.47,4.47,0,0,1,0,8.94,4.47,4.47,0,1,1,0-8.94Zm.24,2.77-.59,0c-.38.57-1,1.1-1.06,1.71-.12.85.51,1.42,1.42,1.42a1.29,1.29,0,0,0,1.43-1.54C697.47,64,696.8,63.52,696.38,63Z"/><path d="M691.49,103.13c.56-.39,1.08-1,1.69-1.1.83-.13,1.42.48,1.46,1.39s-.74,1.71-1.52,1.49a6.45,6.45,0,0,1-1.65-1.18Z"/><path d="M694.87,85.84c-.55.41-1,1-1.66,1.16-.85.16-1.42-.46-1.5-1.36s.68-1.73,1.46-1.52a6.17,6.17,0,0,1,1.69,1.13Z"/><path d="M693.52,107.75c.38.56,1,1.1,1.07,1.7.11.93-.58,1.49-1.54,1.43a1.27,1.27,0,0,1-1.32-1.52c.13-.61.78-1.1,1.2-1.63Z"/><path d="M693.54,95.82c.37.56,1,1.1,1.06,1.71.12.85-.53,1.39-1.43,1.43s-1.69-.76-1.45-1.54a6.37,6.37,0,0,1,1.22-1.63Z"/><path d="M693.4,113.69c.42.54,1.06,1,1.19,1.63.19.84-.41,1.43-1.31,1.53s-1.75-.63-1.56-1.42a5.88,5.88,0,0,1,1.09-1.71Z"/><path d="M694.87,91.82c-.55.4-1.06,1-1.67,1.13-.94.16-1.5-.52-1.48-1.47s.6-1.53,1.46-1.37c.61.12,1.13.72,1.69,1.11Z"/><path d="M691.48,79.26c.56-.38,1.09-1,1.7-1.08.92-.13,1.5.54,1.45,1.5A1.26,1.26,0,0,1,693.12,81c-.6-.12-1.1-.74-1.65-1.14Z"/><path d="M693.42,71.94c.41.54,1,1,1.18,1.63.18.86-.43,1.46-1.33,1.52s-1.64-.54-1.53-1.44c.06-.6.7-1.14,1.08-1.7Z"/><path d="M699.44,113.7c.39.56,1,1.07,1.1,1.67.16.93-.51,1.51-1.47,1.48s-1.52-.62-1.35-1.48c.12-.61.72-1.12,1.11-1.67Z"/><path d="M697.46,109.13c.54-.39,1-1,1.64-1.12.92-.16,1.51.5,1.48,1.46s-.6,1.52-1.45,1.38c-.6-.11-1.11-.72-1.66-1.1Z"/><path d="M697.46,97.15c.56-.38,1.09-1,1.69-1.08.86-.13,1.43.51,1.44,1.41s-.59,1.61-1.52,1.43c-.59-.11-1.09-.75-1.63-1.15Z"/><path d="M700.81,91.87c-.56.38-1.08,1-1.69,1.08a1.25,1.25,0,0,1-1.44-1.39c0-1,.58-1.61,1.51-1.44.59.1,1.09.74,1.64,1.14Z"/><path d="M699.44,77.9c.39.56,1,1.07,1.11,1.68.16.86-.46,1.45-1.36,1.47s-1.63-.54-1.47-1.48c.1-.6.72-1.11,1.11-1.67Z"/><path d="M697.45,73.31c.56-.39,1.07-1,1.67-1.1a1.24,1.24,0,0,1,1.46,1.37c0,1-.56,1.62-1.49,1.47-.59-.1-1.1-.74-1.64-1.13Z"/><path d="M700.83,103.69c-.54.42-1,1.07-1.61,1.2a1.25,1.25,0,0,1-1.52-1.3c-.07-1,.48-1.66,1.4-1.56.6.06,1.14.69,1.7,1.06Z"/><path d="M700.83,85.79c-.54.42-1,1.07-1.61,1.2-.84.19-1.46-.39-1.52-1.3s.47-1.66,1.4-1.56c.6.06,1.14.69,1.7,1.06Z"/><path d="M721.51,63.09c0-.89,0-1.78,0-2.67s.46-1.68,1.5-1.67,1.48.7,1.49,1.68c0,1.86,0,3.73,0,5.59,0,1-.53,1.66-1.57,1.61A1.43,1.43,0,0,1,721.51,66C721.5,65,721.51,64.06,721.51,63.09Z"/><path d="M714.06,63.13v-2.8a1.42,1.42,0,0,1,1.45-1.59,1.38,1.38,0,0,1,1.5,1.52c0,2,0,3.9,0,5.85a1.38,1.38,0,0,1-1.51,1.52,1.4,1.4,0,0,1-1.45-1.58Z"/><path d="M763.26,103.44a4,4,0,0,1-1.63,0c-.52-.26-1.24-.87-1.22-1.3a2,2,0,0,1,1.11-1.51,10,10,0,0,1,3.53,0,1.81,1.81,0,0,1,1.1,1.39,2.42,2.42,0,0,1-1.26,1.43c-.43.23-1.08,0-1.63,0Z"/><path d="M763.2,106.46c.5,0,1,0,1.52,0a1.39,1.39,0,0,1,1.51,1.51,1.37,1.37,0,0,1-1.48,1.41c-1,0-2,0-2.92,0a1.46,1.46,0,1,1,0-2.92C762.26,106.44,762.73,106.46,763.2,106.46Z"/><path d="M715.56,363.28H690.94c-3.55,0-5.23-1.69-5.23-5.26V288.09c0-3.72,1.64-5.35,5.39-5.35h16.79c.1-.18.17-.25.17-.33.29-3.6.87-4.14,4.45-4.14h14.06c2.88,0,3.8.9,3.89,3.79,0,.17,0,.33.07.68h33.33c3.72,0,5.39,1.67,5.39,5.37,0,4.6,0,9.2,0,14,.57,0,1.06,0,1.55,0a4.43,4.43,0,0,1,4.39,4.55c0,2.81,0,5.62,0,8.44,0,3.08-1.73,4.82-4.81,4.89-.33,0-.66.05-1.06.09v2.78c4.15.61,4.37.87,4.37,5.13v12c0,2.88-.87,3.76-3.8,3.89-.16,0-.32,0-.65.09v1.37c0,4.31,0,8.61,0,12.91,0,3.2-1.8,5-5,5H739.4c0,.59,0,1.08,0,1.57a2.88,2.88,0,0,1-2.85,2.88q-9.07.07-18.15,0a2.85,2.85,0,0,1-2.83-2.89C715.54,364.39,715.56,363.93,715.56,363.28Zm22.35-15v-2.65c0-1,.37-1.7,1.43-1.74s1.56.7,1.57,1.75v2.59h3c0-.84,0-1.6,0-2.36,0-1,.21-1.91,1.45-2,1-.07,1.52.66,1.52,2q0,4.41,0,8.82c0,2.25-.26,2.52-2.47,2.52h-4.91v2.92a6.22,6.22,0,0,0,.66.07q12.15,0,24.29,0c1.31,0,1.82-.55,1.83-1.9,0-4.52,0-9,0-13.55,0-.29-.07-.57-.11-.94-3.34,0-6.62,0-9.89,0q-3.39,0-3.41-3.38,0-7.09,0-14.19a3,3,0,0,1,3.32-3.32c2.9,0,5.79,0,8.69,0h1.34v-3H745.84c-2.37,0-3.42-1.07-3.43-3.44q0-5.37,0-10.74c0-2.67,1-3.71,3.71-3.71h18.66c.45,0,.91,0,1.47-.06V288c0-1.93-.4-2.33-2.31-2.33H730.46c0,4.42,0,8.64,0,12.86,0,2.44-1.06,3.53-3.47,3.53H711.64c-2.51,0-3.55-1.05-3.55-3.6,0-3.79,0-7.58,0-11.37,0-.45-.06-.89-.1-1.42H691.12c-2,0-2.41.35-2.41,2.35V358c0,1.94.38,2.32,2.31,2.32h23.13c.45,0,.9,0,1.33-.06V357.3c-1.89,0-3.71,0-5.53,0-1.32,0-1.84-.46-1.85-1.72,0-3.32,0-6.65,0-10,0-1,.43-1.69,1.5-1.67s1.48.7,1.47,1.7,0,1.76,0,2.61h3c0-.9,0-1.71,0-2.51,0-1.05.37-1.8,1.5-1.8s1.48.82,1.47,1.83v2.48h3V345.7c0-1,.4-1.78,1.54-1.77s1.45.75,1.46,1.72,0,1.75,0,2.62h3c0-.95,0-1.84,0-2.72s.49-1.66,1.55-1.62,1.41.68,1.41,1.63,0,1.76,0,2.71h3c0-.91,0-1.75,0-2.59,0-1,.38-1.71,1.43-1.75s1.55.72,1.55,1.76v2.63Zm-10.53-67H711.16v17.74h16.22Zm43.28,44.75H755.88v14.75h14.78ZM760.24,305.2H745.47v11.74h14.74v-4.32c-.41,0-.74-.06-1.08-.06-1.57,0-3.15,0-4.72,0a1.47,1.47,0,1,1-.08-2.94c.63,0,1.27,0,1.91,0h4Zm-23.92,59.48v-7.27H718.59v7.27Zm27-47.65c2.58,0,5,.07,7.49-.07a2,2,0,0,0,1.3-1.39c.12-3,.11-6,0-9.06a1.83,1.83,0,0,0-1.22-1.32c-2.49-.13-5-.06-7.56-.06ZM711.1,354.22h32.71v-2.76H711.1Z"/><path d="M739.4,323c0,2.85,0,5.71,0,8.56a3,3,0,0,1-3.32,3.34c-3.22,0-6.45-.13-9.68-.14-2.45,0-4.89.13-7.33.15s-3.51-1.11-3.51-3.53V314.55c0-2.34,1.11-3.5,3.41-3.49,3.25,0,6.5.14,9.75.15,2.44,0,4.88-.06,7.32-.14a3,3,0,0,1,3.36,3.15C739.42,317.16,739.4,320.1,739.4,323Zm-3-9H718.63v17.85h17.78Z" style="fill:#ec1e24"/><path d="M763.25,352.77a4.44,4.44,0,0,1-4.4,4.53,4.48,4.48,0,1,1,4.4-4.53Zm-4.1-1.61-.59,0c-.41.53-1,1-1.19,1.62-.19.84.42,1.45,1.31,1.52s1.64-.51,1.54-1.42C760.16,352.26,759.53,351.73,759.15,351.16Z"/><path d="M700.6,352.9a4.42,4.42,0,0,1-4.52,4.4,4.48,4.48,0,1,1,4.52-4.4Zm-4.22-1.76-.59,0c-.37.57-1,1.1-1.06,1.71-.13.86.53,1.38,1.42,1.42s1.69-.77,1.44-1.54A6,6,0,0,0,696.38,351.14Z"/><path d="M758.85,288.71a4.47,4.47,0,0,1-.12,8.94,4.47,4.47,0,1,1,.12-8.94Zm.22,2.78h-.59c-.39.56-1,1.07-1.11,1.67a1.27,1.27,0,0,0,1.38,1.46c1,0,1.61-.59,1.47-1.49C760.13,292.54,759.48,292,759.07,291.49Z"/><path d="M696.14,288.71a4.47,4.47,0,0,1,0,8.94,4.47,4.47,0,1,1,0-8.94Zm.24,2.77-.59,0c-.38.56-1,1.1-1.06,1.71-.12.84.51,1.42,1.42,1.41s1.59-.64,1.43-1.53C697.47,292.5,696.8,292,696.38,291.48Z"/><path d="M691.49,331.62c.56-.38,1.08-1,1.69-1.1.83-.12,1.42.48,1.46,1.4s-.74,1.71-1.52,1.48a6.21,6.21,0,0,1-1.65-1.18Z"/><path d="M694.87,314.34c-.55.4-1,1-1.66,1.15-.85.17-1.42-.46-1.5-1.35s.68-1.74,1.46-1.53a6.17,6.17,0,0,1,1.69,1.13Z"/><path d="M693.52,336.24c.38.57,1,1.11,1.07,1.71.11.92-.58,1.48-1.54,1.42a1.27,1.27,0,0,1-1.32-1.52c.13-.6.78-1.09,1.2-1.63Z"/><path d="M693.54,324.31c.37.57,1,1.1,1.06,1.71.12.86-.53,1.4-1.43,1.43s-1.69-.76-1.45-1.54a6.16,6.16,0,0,1,1.22-1.62Z"/><path d="M693.4,342.19c.42.53,1.06,1,1.19,1.62.19.84-.41,1.43-1.31,1.53s-1.75-.63-1.56-1.42a6,6,0,0,1,1.09-1.71Z"/><path d="M694.87,320.32c-.55.39-1.06,1-1.67,1.12-.94.16-1.5-.52-1.48-1.47a1.24,1.24,0,0,1,1.46-1.36c.61.11,1.13.71,1.69,1.1Z"/><path d="M691.48,307.75c.56-.38,1.09-1,1.7-1.08.92-.13,1.5.54,1.45,1.51a1.25,1.25,0,0,1-1.51,1.32c-.6-.12-1.1-.74-1.65-1.13Z"/><path d="M693.42,300.43c.41.54,1,1,1.18,1.64.18.85-.43,1.45-1.33,1.51s-1.64-.53-1.53-1.44c.06-.6.7-1.13,1.08-1.69Z"/><path d="M699.44,342.19c.39.56,1,1.07,1.1,1.68.16.93-.51,1.5-1.47,1.47s-1.52-.61-1.35-1.48c.12-.6.72-1.11,1.11-1.67Z"/><path d="M697.46,337.62c.54-.39,1-1,1.64-1.12.92-.15,1.51.5,1.48,1.46s-.6,1.53-1.45,1.38c-.6-.11-1.11-.71-1.66-1.1Z"/><path d="M697.46,325.64c.56-.38,1.09-1,1.69-1.07.86-.14,1.43.5,1.44,1.4s-.59,1.61-1.52,1.43c-.59-.11-1.09-.75-1.63-1.15Z"/><path d="M700.81,320.36c-.56.38-1.08,1-1.69,1.08a1.25,1.25,0,0,1-1.44-1.39c0-1,.58-1.61,1.51-1.44.59.11,1.09.74,1.64,1.14Z"/><path d="M699.44,306.4c.39.55,1,1.07,1.11,1.67.16.87-.46,1.45-1.36,1.48s-1.63-.55-1.47-1.48c.1-.6.72-1.12,1.11-1.67Z"/><path d="M697.45,301.8c.56-.38,1.07-1,1.67-1.1a1.25,1.25,0,0,1,1.46,1.37c0,1-.56,1.63-1.49,1.47-.59-.1-1.1-.74-1.64-1.13Z"/><path d="M700.83,332.18c-.54.42-1,1.07-1.61,1.2-.84.19-1.46-.38-1.52-1.3s.48-1.65,1.4-1.56c.6.06,1.14.69,1.7,1.07Z"/><path d="M700.83,314.28c-.54.42-1,1.07-1.61,1.21a1.25,1.25,0,0,1-1.52-1.31c-.07-1,.47-1.66,1.4-1.56.6.07,1.14.69,1.7,1.07Z"/><path d="M721.51,291.58c0-.89,0-1.78,0-2.67s.46-1.67,1.5-1.67,1.48.7,1.49,1.68c0,1.87,0,3.73,0,5.6,0,1-.53,1.65-1.57,1.61a1.44,1.44,0,0,1-1.42-1.63C721.5,293.53,721.51,292.55,721.51,291.58Z"/><path d="M714.06,291.62v-2.79a1.41,1.41,0,0,1,1.45-1.59,1.37,1.37,0,0,1,1.5,1.52c0,1.95,0,3.9,0,5.84a1.39,1.39,0,0,1-1.51,1.53,1.41,1.41,0,0,1-1.45-1.58Z"/><path d="M763.26,331.93a4,4,0,0,1-1.63,0c-.52-.26-1.24-.87-1.22-1.31a2,2,0,0,1,1.11-1.51,9.74,9.74,0,0,1,3.53,0,1.8,1.8,0,0,1,1.1,1.38,2.42,2.42,0,0,1-1.26,1.43c-.43.23-1.08.05-1.63.05Z"/><path d="M763.2,335c.5,0,1,0,1.52,0a1.4,1.4,0,0,1,1.51,1.51,1.38,1.38,0,0,1-1.48,1.42c-1,0-2,0-2.92,0a1.47,1.47,0,1,1,0-2.93C762.26,334.94,762.73,335,763.2,335Z"/><polyline points="800.58 579.85 899.58 579.85 920.17 559.25" style="fill:none;stroke:#000;stroke-miterlimit:10;stroke-width:5px"/><polyline points="800.58 569.02 892.38 569.02 918.74 542.66" style="fill:none;stroke:#000;stroke-miterlimit:10;stroke-width:5px"/><line x1="897.78" y1="321.46" x2="789.78" y2="321.46" style="fill:none;stroke:#000;stroke-miterlimit:10;stroke-width:6px"/><path d="M760,235.51l.62-1.32a10.29,10.29,0,0,0,4.18,1.15c2.45,0,4.35-.88,4.35-3.65,0-3.48-7.2-3.9-7.2-8.8,0-2.85,2.47-4.25,5.37-4.25a9.42,9.42,0,0,1,4.2.93l-.48,1.25a9.65,9.65,0,0,0-3.82-.85c-2,0-3.82.67-3.82,3,0,3.52,7.17,4.25,7.17,8.8,0,3.25-2.55,5-5.87,5A10.58,10.58,0,0,1,760,235.51Z"/><path d="M773,231.69c0-5.05,2.22-9.27,6.32-9.27a2.81,2.81,0,0,1,3.15,3c0,1.82-1.65,2.82-3.3,3.45l-4.7,1.8c0,.25,0,.52,0,.77,0,2.58.47,4,1.7,4a10.3,10.3,0,0,0,4.32-1.35l.5,1.13a10.23,10.23,0,0,1-5,1.55C773.67,236.74,773,234.34,773,231.69Zm5.79-4.08c1.38-.55,2.28-1.32,2.28-2.17a1.65,1.65,0,0,0-1.83-1.75c-3.09,0-4.22,3-4.64,5.6Z"/><path d="M785.79,222.79h1.43l-.25,2.45c.95-.8,3-2.8,5.07-2.8,1.82,0,2.27.73,2.27,2.18,0,.55-.07,1.2-.15,2l-1.07,9.85h-1.4l1-9.52a18.69,18.69,0,0,0,.17-2c0-.92-.3-1.24-1.4-1.24s-4,2.47-4.69,2.92l-1.05,9.8h-1.4Z"/><path d="M797,236.09l.42-1.3a9.1,9.1,0,0,0,3.15.6c1,0,3.35-.3,3.35-2.25,0-3-5.3-3.65-5.3-7.15,0-2.65,2.08-3.42,4.3-3.42a8.6,8.6,0,0,1,3.3.72l-.48,1.13a9.13,9.13,0,0,0-3.2-.65c-1.25,0-2.59.37-2.59,1.94,0,3,5.32,3.48,5.32,7.33,0,2.65-2.53,3.62-4.8,3.62A8.11,8.11,0,0,1,797,236.09Z"/><path d="M808,232.06c0-6,2.78-9.62,6.6-9.62,2.47,0,3.62,2.38,3.62,4.52,0,4.55-1.77,9.78-6.52,9.78C809.32,236.74,808,234.54,808,232.06Zm8.77-4.64c0-2.5-.7-3.75-2.72-3.75-2.5,0-4.57,3.62-4.57,7.94,0,1.63.25,3.88,2.65,3.88S816.76,232,816.76,227.42Z"/><path d="M822.49,222.79h1.4l-.25,2.53c.72-.73,2.67-2.78,4.57-2.78a4.33,4.33,0,0,1,.58.05l-.28,1.28a1,1,0,0,0-.4,0c-1.32,0-3.5,2-4.62,2.92l-1,9.68h-1.39Z"/><path d="M836.71,218.77h8l-.13,1.25h-6.55l-.77,7.4h6l-.13,1.32h-6l-.8,7.7h-1.5Z"/><path d="M846.31,234a10.46,10.46,0,0,1,.08-1.18l1.07-10h1.4l-1.05,9.47c-.07.7-.12,1.25-.12,1.7,0,1.18.32,1.58,1.32,1.58,1.75,0,3.78-2.08,4.73-3l1-9.77h1.4l-1.45,13.65h-1.4l.25-2.45c-1,1-2.68,2.72-4.83,2.72C847,236.71,846.31,235.81,846.31,234Z"/><path d="M858.64,236.09l.42-1.3a9.1,9.1,0,0,0,3.15.6c1,0,3.35-.3,3.35-2.25,0-3-5.3-3.65-5.3-7.15,0-2.65,2.08-3.42,4.3-3.42a8.51,8.51,0,0,1,3.3.72l-.47,1.13a9.13,9.13,0,0,0-3.2-.65c-1.25,0-2.6.37-2.6,1.94,0,3,5.32,3.48,5.32,7.33,0,2.65-2.52,3.62-4.8,3.62A8.11,8.11,0,0,1,858.64,236.09Z"/><path d="M871.66,222.79h1.4l-1.42,13.65h-1.4Zm-.3-4.25,1.53-1.3,1.27,1.3-1.57,1.33Z"/><path d="M876.26,232.06c0-6,2.78-9.62,6.6-9.62,2.48,0,3.63,2.38,3.63,4.52,0,4.55-1.78,9.78-6.53,9.78C877.59,236.74,876.26,234.54,876.26,232.06Zm8.78-4.64c0-2.5-.7-3.75-2.73-3.75-2.5,0-4.57,3.62-4.57,7.94,0,1.63.25,3.88,2.65,3.88C882.94,235.49,885,232,885,227.42Z"/><path d="M890.76,222.79h1.43l-.25,2.45c.95-.8,3-2.8,5.07-2.8,1.83,0,2.28.73,2.28,2.18,0,.55-.08,1.2-.15,2l-1.08,9.85h-1.4l1.05-9.52a19.25,19.25,0,0,0,.18-2c0-.92-.3-1.24-1.4-1.24s-4,2.47-4.7,2.92l-1,9.8h-1.4Z"/><path d="M904.29,234.66H906l-.17,1.78h-1.75Zm1.25-11.87h1.72l-.2,1.78h-1.72Z"/><path d="M765.69,248.77h2.2l1.42,17.07,7.75-17.07h2.2l-.87,17.67h-1.5l.9-16.07-7.28,16.07h-2.62l-1.35-16.1-5,16.1h-1.47Z"/><path d="M783,262.06c0-6,2.78-9.62,6.6-9.62,2.47,0,3.62,2.38,3.62,4.52,0,4.55-1.77,9.78-6.52,9.78C784.32,266.74,783,264.54,783,262.06Zm8.77-4.64c0-2.5-.69-3.75-2.72-3.75-2.5,0-4.57,3.62-4.57,7.94,0,1.63.25,3.88,2.65,3.88S791.76,262,791.76,257.42Z"/><path d="M796.34,264.21a6.58,6.58,0,0,1,0-.95l1-9.19h-2l.12-1.28h2l.28-2.8h1.4l-.28,2.8h4.42l-.12,1.28h-4.42l-1,9.07a10.29,10.29,0,0,0-.08,1.1c0,.95.3,1.2,1.15,1.2a8.82,8.82,0,0,0,3-.85l.37,1.17a8,8,0,0,1-3.55,1C797.89,266.74,796.34,266.89,796.34,264.21Z"/><path d="M806.87,252.79h1.4l-1.43,13.65h-1.4Zm-.3-4.25,1.52-1.3,1.28,1.3-1.58,1.33Z"/><path d="M811.47,262.06c0-6,2.77-9.62,6.59-9.62,2.48,0,3.63,2.38,3.63,4.52,0,4.55-1.78,9.78-6.52,9.78C812.79,266.74,811.47,264.54,811.47,262.06Zm8.77-4.64c0-2.5-.7-3.75-2.73-3.75-2.5,0-4.57,3.62-4.57,7.94,0,1.63.25,3.88,2.65,3.88S820.24,262,820.24,257.42Z"/><path d="M826,252.79h1.42l-.25,2.45c1-.8,3.05-2.8,5.07-2.8,1.83,0,2.28.73,2.28,2.18,0,.55-.08,1.2-.15,2l-1.08,9.85h-1.4l1-9.52a19.25,19.25,0,0,0,.18-2c0-.92-.3-1.24-1.4-1.24s-4.05,2.47-4.7,2.92l-1,9.8h-1.4Z"/><path d="M841.27,265.51l.62-1.32a10.29,10.29,0,0,0,4.17,1.15c2.45,0,4.35-.88,4.35-3.65,0-3.48-7.19-3.9-7.19-8.8,0-2.85,2.47-4.25,5.37-4.25a9.42,9.42,0,0,1,4.2.93l-.48,1.25a9.69,9.69,0,0,0-3.82-.85c-2,0-3.82.67-3.82,3,0,3.52,7.17,4.25,7.17,8.8,0,3.25-2.55,5-5.88,5A10.57,10.57,0,0,1,841.27,265.51Z"/><path d="M854.21,261.69c0-5.05,2.23-9.27,6.33-9.27a2.81,2.81,0,0,1,3.15,3c0,1.82-1.65,2.82-3.3,3.45l-4.7,1.8c0,.25,0,.52,0,.77,0,2.58.47,4,1.69,4a10.3,10.3,0,0,0,4.33-1.35l.5,1.13a10.26,10.26,0,0,1-5,1.55C854.92,266.74,854.21,264.34,854.21,261.69Zm5.8-4.08c1.38-.55,2.28-1.32,2.28-2.17a1.65,1.65,0,0,0-1.83-1.75c-3.1,0-4.22,3-4.65,5.6Z"/><path d="M867,252.79h1.42l-.25,2.45c.95-.8,3-2.8,5.08-2.8,1.82,0,2.27.73,2.27,2.18,0,.55-.07,1.2-.15,2l-1.07,9.85h-1.4l1-9.52a18.69,18.69,0,0,0,.17-2c0-.92-.3-1.24-1.4-1.24s-4,2.47-4.7,2.92l-1,9.8h-1.39Z"/><path d="M878.21,266.09l.43-1.3a9,9,0,0,0,3.15.6c1,0,3.35-.3,3.35-2.25,0-3-5.3-3.65-5.3-7.15,0-2.65,2.07-3.42,4.3-3.42a8.6,8.6,0,0,1,3.3.72l-.48,1.13a9.13,9.13,0,0,0-3.2-.65c-1.25,0-2.6.37-2.6,1.94,0,3,5.33,3.48,5.33,7.33,0,2.65-2.53,3.62-4.8,3.62A8.18,8.18,0,0,1,878.21,266.09Z"/><path d="M889.24,262.06c0-6,2.77-9.62,6.6-9.62,2.47,0,3.62,2.38,3.62,4.52,0,4.55-1.77,9.78-6.52,9.78C890.56,266.74,889.24,264.54,889.24,262.06Zm8.77-4.64c0-2.5-.7-3.75-2.72-3.75-2.5,0-4.58,3.62-4.58,7.94,0,1.63.25,3.88,2.65,3.88S898,262,898,257.42Z"/><path d="M903.74,252.79h1.4l-.25,2.53c.72-.73,2.67-2.78,4.57-2.78a4.33,4.33,0,0,1,.58.05l-.28,1.28a1,1,0,0,0-.4,0c-1.32,0-3.5,2-4.62,2.92l-1,9.68h-1.4Z"/><path d="M920.76,259.51h-5.47l.15-1.25h5.47l.6-5.69h1.33l-.6,5.69h5.82l-.15,1.25h-5.82l-.58,5.53h-1.32Z"/><path d="M793.92,278.77h4.29c4.93,0,8.58,2.4,8.58,7.82,0,6.5-3.73,9.85-10.17,9.85H792Zm3,16.39c5.3,0,8.32-2.87,8.32-8.52,0-4.65-2.92-6.6-7.25-6.6h-2.74l-1.6,15.12Z"/><path d="M811.87,278.77h1.47l-1.7,16.32h7.67l-.15,1.35H810Z"/><path d="M820.12,288.64c0-5.87,3.59-10,9.57-10a9.28,9.28,0,0,1,3.95.67l-.55,1.23a8.43,8.43,0,0,0-3.48-.58c-5.19,0-7.94,3.58-7.94,8.67,0,4.35,2.62,6.7,6.82,6.7a11.66,11.66,0,0,0,3.75-.55l.3,1.3a14.78,14.78,0,0,1-4.68.63C823.07,296.69,820.12,293.49,820.12,288.64Z"/><path d="M1004.41,170h-1.12v-1a3.82,3.82,0,0,0-3.81-3.81H996a3.83,3.83,0,0,1-4.3,0h-3.47a3.83,3.83,0,0,1-4.3,0h-3.47a3.82,3.82,0,0,0-3.81,3.81v1h-4.44v-1a3.81,3.81,0,0,0-3.81-3.81H965a3.85,3.85,0,0,0-2.15.66,3.9,3.9,0,0,0-2.15-.66h-3.47a3.7,3.7,0,0,0-2.1.64,3.74,3.74,0,0,0-2.1-.64H933.89a3.91,3.91,0,0,0-2.16.66,3.85,3.85,0,0,0-2.15-.66h-3.45a3.82,3.82,0,0,0-3.81,3.81v1H921.2a2.85,2.85,0,0,0-2.86,2.86v6a2.85,2.85,0,0,0,2.85,2.85h13.57a1.71,1.71,0,1,0,0-3.42h-13v-4.87h82.08v4.87H942.51a1.71,1.71,0,0,0,0,3.42h61.9a2.86,2.86,0,0,0,2.85-2.85v-6A2.86,2.86,0,0,0,1004.41,170ZM930,170h-4.25v-1a.38.38,0,0,1,.39-.39h3.47a.38.38,0,0,1,.39.39Zm23.38,0H933.49v-1a.39.39,0,0,1,.4-.39H953a.38.38,0,0,1,.39.39v1Zm7.67,0h-4.25v-1a.38.38,0,0,1,.39-.39h3.47a.38.38,0,0,1,.39.39v1Zm7.77,0h-4.26v-1a.39.39,0,0,1,.4-.39h3.46a.39.39,0,0,1,.4.39v1Zm15.52,0h-4.25v-1a.38.38,0,0,1,.39-.39h3.47a.38.38,0,0,1,.39.39Zm7.77,0h-4.25v-1a.38.38,0,0,1,.39-.39h3.47a.38.38,0,0,1,.39.39v1Zm7.76,0H995.6v-1a.39.39,0,0,1,.4-.39h3.46a.39.39,0,0,1,.4.39Z"/><path d="M1027.2,164.44h-10.05a7.81,7.81,0,0,0-7.8,7.81v6.66a2.86,2.86,0,0,0,2.85,2.85h20a2.86,2.86,0,0,0,2.85-2.85v-6.66A7.81,7.81,0,0,0,1027.2,164.44Zm4.38,13.9h-18.82v-6.09a4.39,4.39,0,0,1,4.39-4.39h10.05a4.38,4.38,0,0,1,4.38,4.39v6.09Z"/><path d="M935.43,145.23h26.63v4.31H958.2a5.38,5.38,0,0,0-5.38,5.39v3a2.63,2.63,0,0,0,2.63,2.63h25a1.71,1.71,0,0,0,0-3.41H956.23v-2.2a2,2,0,0,1,2-2H995a2,2,0,0,1,2,2v2.2h-8.49a1.71,1.71,0,1,0,0,3.41h9.28a2.63,2.63,0,0,0,2.63-2.63v-3a5.39,5.39,0,0,0-5.39-5.39h-3.86v-4.31h26.63a6.42,6.42,0,0,0,6.41-6.42l.11-67.41a6.42,6.42,0,0,0-6.41-6.42H935.43A6.42,6.42,0,0,0,929,71.4v67.4A6.43,6.43,0,0,0,935.43,145.23Zm52.3,4.31H965.48v-4.31h22.25ZM932.53,71.4a3,3,0,0,1,3-3h82.24a3,3,0,0,1,3,3v9.65H932.53Zm-.1,13.08h88.35v46H932.43Zm0,49.39h88.35v4.93a3,3,0,0,1-3,3H935.43a3,3,0,0,1-3-3Z"/><path d="M939.55,70.29a4.39,4.39,0,1,0,4.39,4.39A4.4,4.4,0,0,0,939.55,70.29Zm0,6.33a1.94,1.94,0,1,1,1.94-1.94A1.94,1.94,0,0,1,939.55,76.62Z" style="fill:#ff3030"/><path d="M949.9,70.29a4.39,4.39,0,1,0,4.39,4.39A4.4,4.4,0,0,0,949.9,70.29Zm0,6.33a1.94,1.94,0,1,1,1.94-1.94A1.94,1.94,0,0,1,949.9,76.62Z"/><path d="M960.25,70.29a4.39,4.39,0,1,0,4.39,4.39A4.4,4.4,0,0,0,960.25,70.29Zm0,6.33a1.94,1.94,0,1,1,1.94-1.94A1.94,1.94,0,0,1,960.25,76.62Z"/><path d="M940.54,577.15c-6.12,0-7.54-3.17-7.54-9,0-6.15,1.54-9.15,7.44-9.15a7.65,7.65,0,0,1,4.3,1l-1.12,3.07a7.9,7.9,0,0,0-3.13-.6c-2.7,0-3.17,1.7-3.17,5.4s.45,5.67,3.67,5.67a10.73,10.73,0,0,0,3.15-.35l.8,3.25A10.91,10.91,0,0,1,940.54,577.15Z"/><path d="M953.72,577.2c-4.5,0-5.85-2.72-5.85-7,0-4.52,1.72-7.29,6-7.29,4.85,0,5.8,2.72,5.8,7.17C959.72,574.73,957.92,577.2,953.72,577.2Zm.15-11c-1.78,0-1.8,1.67-1.8,3.89s.12,3.78,1.82,3.78,1.55-1.48,1.55-3.8S955.59,566.21,953.87,566.21Z"/><path d="M972,576.9v-9.72c0-1.22,0-1.65-.77-1.65a1.19,1.19,0,0,0-.78.3,10,10,0,0,1,0,1.22v9.85h-3.27v-10c0-.9,0-1.4-.73-1.4a1,1,0,0,0-.75.45V576.9h-3.29V563.26h3.29v1.3a2.73,2.73,0,0,1,2.45-1.6,2,2,0,0,1,2,1.7,2.83,2.83,0,0,1,2.43-1.7c2.25,0,2.62,1,2.62,3.67V576.9Z"/><path d="M983.52,577.1c-.63,0-.68,0-1.18-.05v5.35h-4.17V563.26h4.15v1.22a4.39,4.39,0,0,1,3-1.55c3.07,0,4.55,1.7,4.55,6.52C989.92,575.15,987.49,577.1,983.52,577.1Zm2.2-7.52c0-2.45-.38-3.1-1.83-3.1a2.92,2.92,0,0,0-1.57.4v7a5.35,5.35,0,0,0,1.27.1c2.15,0,2.1-1.8,2.1-4.35Z"/><path d="M1000.54,576.9v-1.37a4.37,4.37,0,0,1-3.45,1.7c-4.27,0-4.07-2.3-4.07-5.4v-8.57h4.15v8.22c0,1.87.17,2.2,1.32,2.2a3.47,3.47,0,0,0,2-.75v-9.67h4.18V576.9Z"/><path d="M1016.57,577.18c-2.63,0-6.2.12-6.2-4.53V566.3h-2.75v-3h2.75v-2.8h4.15v2.8h5v3h-5v6.33c0,1,.87,1.07,2,1.07.92,0,3.2-.2,3.2-.2l.4,3.2A15.32,15.32,0,0,1,1016.57,577.18Z"/><path d="M1029.67,577.13c-4.13,0-6.65-1.4-6.65-6.85s2.17-7.35,6.3-7.35c4.3,0,5.35,3.2,5.35,7.32v1.5h-7.5c.15,1.78,1.3,1.88,2.77,1.88a28.48,28.48,0,0,0,4.25-.33l.5,3.18A18.53,18.53,0,0,1,1029.67,577.13Zm-.68-11c-1.17,0-1.6.78-1.7,2.8h3.13C1030.42,566.8,1030,566.1,1029,566.1Z"/><path d="M938.17,603.18a14.64,14.64,0,0,1-5.35-.7l.85-3.38a14.76,14.76,0,0,0,4.42.58c1.8,0,2.38-.78,2.38-1.73,0-2.87-7.43-1.87-7.43-8.09,0-3.4,3-4.78,6.1-4.78A11.48,11.48,0,0,1,944,586l-1.27,3.15a9.52,9.52,0,0,0-3.43-.65c-1.77,0-2.1.57-2.1,1.32,0,2.63,7.58,2.35,7.58,8C944.77,601.68,941.82,603.18,938.17,603.18Z"/><path d="M954.67,603.13c-4.13,0-6.65-1.4-6.65-6.85s2.17-7.35,6.3-7.35c4.3,0,5.35,3.2,5.35,7.32v1.5h-7.5c.15,1.78,1.3,1.88,2.77,1.88a28.48,28.48,0,0,0,4.25-.33l.5,3.18A18.53,18.53,0,0,1,954.67,603.13Zm-.68-11c-1.17,0-1.6.78-1.7,2.8h3.13C955.42,592.8,955,592.1,954,592.1Z"/><path d="M975.07,592.75a8.17,8.17,0,0,0-1.88-.15,4.38,4.38,0,0,0-3,1v6h4.5v3.3H962.92v-3.3H966v-7.3h-3v-3h7.22v1.82a4.54,4.54,0,0,1,4-2.1,4.67,4.67,0,0,1,1.58.2Z"/><path d="M986.12,602.9h-5l-3.55-13.64h4.22l1.43,7.67.42,3h.15l.53-3,1.8-7.67h4.15Z"/><path d="M999.67,603.13c-4.13,0-6.65-1.4-6.65-6.85s2.17-7.35,6.3-7.35c4.3,0,5.35,3.2,5.35,7.32v1.5h-7.5c.15,1.78,1.3,1.88,2.77,1.88a28.48,28.48,0,0,0,4.25-.33l.5,3.18A18.53,18.53,0,0,1,999.67,603.13Zm-.68-11c-1.17,0-1.6.78-1.7,2.8h3.13C1000.42,592.8,1000,592.1,999,592.1Z"/><path d="M1020.07,592.75a8.17,8.17,0,0,0-1.88-.15,4.38,4.38,0,0,0-3,1v6h4.5v3.3h-11.77v-3.3h3.1v-7.3h-3v-3h7.22v1.82a4.54,4.54,0,0,1,4-2.1,4.67,4.67,0,0,1,1.58.2Z"/><path d="M938.64,45.83c-4.07,0-6-1-6-6.78V27.83h4.3V38.9c0,2.7.33,3.38,1.68,3.38s1.67-.68,1.67-3.38V27.83h4.2V38.46C944.49,44.63,942.59,45.83,938.64,45.83Z"/><path d="M947.64,45.5V42.2h3.8v-11h-3.8V27.83h11.8v3.33h-3.75v11h3.75v3.3Z"/><path d="M985.69,31.16V45.5h-4.25V31.16h-4.05V27.83h12.35v3.33Z"/><path d="M999.37,45.73c-4.13,0-6.65-1.4-6.65-6.85s2.17-7.35,6.3-7.35c4.3,0,5.35,3.2,5.35,7.32v1.5h-7.5c.15,1.78,1.3,1.88,2.77,1.88a28.48,28.48,0,0,0,4.25-.33l.5,3.18A18.53,18.53,0,0,1,999.37,45.73Zm-.68-11c-1.17,0-1.6.77-1.7,2.79h3.13C1000.12,35.41,999.72,34.71,998.69,34.71Z"/><path d="M1019.76,35.36a8.08,8.08,0,0,0-1.87-.15,4.43,4.43,0,0,0-3,1v6h4.5v3.3h-11.77V42.2h3.1V34.91h-3.05v-3h7.22v1.82a5.14,5.14,0,0,1,5.57-1.9Z"/><path d="M1031.69,45.5V35.78c0-1.22,0-1.65-.77-1.65a1.19,1.19,0,0,0-.78.3,10.12,10.12,0,0,1,0,1.23V45.5h-3.27v-10c0-.9,0-1.4-.73-1.4a1,1,0,0,0-.75.45V45.5h-3.3V31.86h3.3v1.3a2.73,2.73,0,0,1,2.45-1.6,2,2,0,0,1,2,1.7,2.83,2.83,0,0,1,2.43-1.7c2.25,0,2.62,1.05,2.62,3.67V45.5Z"/><path d="M1038.07,45.5V42.2h3.9V34.91h-3.65v-3h7.8V42.2h3.74v3.3Zm5.92-15-2.87-2.9,2.87-2.88,2.87,2.88Z"/><path d="M1060.26,45.5V37.28c0-1.87-.17-2.2-1.32-2.2a3,3,0,0,0-2,.75V45.5h-4.17V31.86h4.17v1.37a4.44,4.44,0,0,1,3.45-1.77c4.27,0,4.07,2.37,4.07,5.47V45.5Z"/><path d="M1079.81,45.6c-1.85.1-4.17,0-4.62-1.42a3.78,3.78,0,0,1-3,1.5c-3,0-4.63-1.3-4.63-4,0-3.44,3.15-4,5.85-4h1.4V36.46c0-1.2-.77-1.4-2.47-1.4a12.45,12.45,0,0,0-3.35.5l-.83-3.13a14.3,14.3,0,0,1,4.78-.9c2.9,0,5.92.18,5.92,4.13v6.22c0,.45.32.55,1.12.57Zm-5-5.67-1,0c-2.15.1-2.12.82-2.12,1.42s.35,1.08,1.12,1.08a5.25,5.25,0,0,0,2-.43Z"/><path d="M1082.42,45.5V42.2h4.07V29.71h-3.85V26.66h8V42.2h4.07v3.3Z"/><line x1="977.06" y1="252.75" x2="977.06" y2="195.19" style="fill:none;stroke:#000;stroke-miterlimit:10;stroke-width:6px"/><polyline points="736.41 266.53 736.41 219.85 841.35 114.91 912.17 114.91" style="fill:none;stroke:#000;stroke-miterlimit:10;stroke-width:6px"/><line x1="789.19" y1="101.94" x2="912.18" y2="101.94" style="fill:none;stroke:#000;stroke-miterlimit:10;stroke-width:6px"/><line x1="789.19" y1="88.45" x2="912.18" y2="88.45" style="fill:none;stroke:#000;stroke-miterlimit:10;stroke-width:6px"/></g><g id="base"><polygon points="325.95 290.55 365.32 267.03 424.29 272.09 386.6 297.26 325.95 290.55" style="fill:#fff;stroke:#000;stroke-linejoin:round;stroke-width:3px"/><line x1="424.29" y1="272.09" x2="424.01" y2="359.9" style="fill:#fff;stroke:#000;stroke-miterlimit:10;stroke-width:3px"/><line x1="386.6" y1="297.26" x2="386.6" y2="400.05" style="fill:#fff;stroke:#000;stroke-miterlimit:10;stroke-width:3px"/><line x1="325.95" y1="290.55" x2="326.23" y2="350.78" style="fill:#fff;stroke:#000;stroke-miterlimit:10;stroke-width:3px"/><polyline points="572.74 298.58 578.6 298.89 540.9 326.06 480.26 319.35 503.07 305.68" style="fill:#fff;stroke:#000;stroke-linejoin:round;stroke-width:3px"/><line x1="578.6" y1="298.89" x2="578.32" y2="388.7" style="fill:#fff;stroke:#000;stroke-miterlimit:10;stroke-width:3px"/><line x1="540.9" y1="326.06" x2="540.9" y2="428.85" style="fill:#fff;stroke:#000;stroke-miterlimit:10;stroke-width:3px"/><line x1="480.26" y1="319.35" x2="480.54" y2="414.21" style="fill:#fff;stroke:#000;stroke-miterlimit:10;stroke-width:3px"/><path d="M512.57,273.42a3.55,3.55,0,0,0-2.68,6.37,1.51,1.51,0,1,1-1.76,2.46,6.57,6.57,0,1,1,6.9.46,1.52,1.52,0,0,1-1.42-2.68A3.54,3.54,0,0,0,512.57,273.42Z"/><path d="M550.08,292.7a7.19,7.19,0,1,0,7.19,7.18A7.19,7.19,0,0,0,550.08,292.7Zm0,11.34a4.16,4.16,0,1,1,4.16-4.16A4.15,4.15,0,0,1,550.08,304Z" style="fill:#ec1e24"/><path d="M509.81,291.6a2.1,2.1,0,1,0,2.09,2.09A2.09,2.09,0,0,0,509.81,291.6Z"/><path d="M547,266.73c-6.7-.36-17.25,2.74-23.47,5.13a12.83,12.83,0,1,0-22.33,12.47A90.37,90.37,0,0,0,486,299.06a4.05,4.05,0,0,0,3.14,6.62h13.92a7.73,7.73,0,1,0,15.45,0h4.8a1.52,1.52,0,1,0,0-3H489.15a1,1,0,0,1-.8-1.68,88,88,0,0,1,14.86-14.33c1,.9,1.72,1.55,2.66,1.18a1.52,1.52,0,0,0,.33-2.64,9.8,9.8,0,0,1,7.4-17.63c9.07,1.61,11.15,13.92,2.89,18.32a1.51,1.51,0,1,0,1.42,2.67,12.82,12.82,0,0,0,6.59-13.79,88,88,0,0,1,17.13-4.7,24.22,24.22,0,0,1,28.15,21.8l.73,8.38a2.22,2.22,0,0,1-2.21,2.42h-4.93a13.59,13.59,0,0,0-13.29-16.34h0a13.59,13.59,0,0,0-13.29,16.34H529a1.52,1.52,0,1,0,0,3h8.83a13.58,13.58,0,0,0,24.55,0h17.09a6.92,6.92,0,0,0,6.41-4.17c2.21-5.27-3-10.72-4.3-16.31a5.44,5.44,0,0,1,5.32-6.66,1.52,1.52,0,0,0,0-3,8.45,8.45,0,0,0-6.68,3.24c-6,7.62,5.11,16.23,2.86,21.58a3.87,3.87,0,0,1-3.61,2.32h-6.4c1-2.13.23-3.39-.26-11.07A27.25,27.25,0,0,0,555,268.34l-2.91-.89c-.64-.16-1.3-.3-2-.4Zm-31.55,38.95a4.7,4.7,0,1,1-9.39,0Zm34.59,4.75a10.55,10.55,0,1,1,9.92-7A10.55,10.55,0,0,1,550.08,310.43Z"/><polygon points="277.06 371.68 316.42 348.15 375.4 353.21 337.7 378.38 277.06 371.68" style="fill:#fff;stroke:#000;stroke-linejoin:round;stroke-width:3px"/><line x1="375.4" y1="353.21" x2="375.12" y2="410.1" style="fill:#fff;stroke:#000;stroke-miterlimit:10;stroke-width:3px"/><line x1="337.7" y1="378.38" x2="337.7" y2="446.25" style="fill:#fff;stroke:#000;stroke-miterlimit:10;stroke-width:3px"/><line x1="277.06" y1="371.68" x2="277.34" y2="435.61" style="fill:#fff;stroke:#000;stroke-miterlimit:10;stroke-width:3px"/><polygon points="375.75 256.55 415.12 233.03 474.09 238.09 436.4 263.26 375.75 256.55" style="fill:#fff;stroke:#000;stroke-linejoin:round;stroke-width:3px"/><line x1="474.09" y1="238.09" x2="473.81" y2="315.9" style="fill:#fff;stroke:#000;stroke-miterlimit:10;stroke-width:3px"/><line x1="436.4" y1="263.26" x2="436.4" y2="347.05" style="fill:#fff;stroke:#000;stroke-miterlimit:10;stroke-width:3px"/><line x1="375.75" y1="256.55" x2="376.03" y2="267.93" style="fill:#fff;stroke:#000;stroke-miterlimit:10;stroke-width:3px"/><path d="M510.24,254.1a33.36,33.36,0,0,0-3-5.21" style="fill:none;stroke:#666;stroke-miterlimit:10;stroke-width:2px"/><path d="M503.41,244c-9.42-10.21-29.39-21.31-64.67,3.29" style="fill:none;stroke:#666;stroke-miterlimit:10;stroke-width:2px;stroke-dasharray:12.408258438110352,6.204129219055176"/><path d="M436.22,249.12q-2.34,1.73-4.77,3.64" style="fill:none;stroke:#666;stroke-miterlimit:10;stroke-width:2px"/><path d="M435.83,238.57a.89.89,0,0,1,.53,1.14l-4.57,12.82,13.55-1.27a.89.89,0,1,1,.17,1.77l-14.95,1.41a.87.87,0,0,1-.78-.34.9.9,0,0,1-.14-.85l5.05-14.14a.9.9,0,0,1,.29-.4A.91.91,0,0,1,435.83,238.57Z" style="fill:#666"/><polyline points="282.74 326.32 276.78 325.66 281.93 322.58" style="fill:none;stroke:#666;stroke-linejoin:round;stroke-width:2px"/><polyline points="286.92 319.6 316.14 302.14 366.25 306.44" style="fill:none;stroke:#666;stroke-linejoin:round;stroke-width:2px;stroke-dasharray:11.631438255310059,5.815719127655029"/><polyline points="369.14 306.68 375.12 307.2 370.13 310.53" style="fill:none;stroke:#666;stroke-linejoin:round;stroke-width:2px"/><polyline points="365.23 313.8 337.43 332.37 285.68 326.64" style="fill:none;stroke:#666;stroke-linejoin:round;stroke-width:2px;stroke-dasharray:11.79257869720459,5.896289348602295"/><line x1="375.12" y1="307.2" x2="375.16" y2="313.2" style="fill:none;stroke:#666;stroke-miterlimit:10;stroke-width:2px"/><line x1="375.19" y1="318.06" x2="375.35" y2="344.78" style="fill:none;stroke:#666;stroke-miterlimit:10;stroke-width:2px;stroke-dasharray:9.719016075134277,4.859508037567139"/><line x1="375.36" y1="347.21" x2="375.4" y2="353.21" style="fill:none;stroke:#666;stroke-miterlimit:10;stroke-width:2px"/><line x1="337.43" y1="332.36" x2="337.43" y2="338.36" style="fill:none;stroke:#666;stroke-miterlimit:10;stroke-width:2px"/><line x1="337.43" y1="343.22" x2="337.43" y2="369.95" style="fill:none;stroke:#666;stroke-miterlimit:10;stroke-width:2px;stroke-dasharray:9.718775749206543,4.8593878746032715"/><line x1="337.43" y1="372.38" x2="337.43" y2="378.38" style="fill:none;stroke:#666;stroke-miterlimit:10;stroke-width:2px"/><line x1="276.78" y1="325.66" x2="277.06" y2="371.68" style="fill:#fff"/><line x1="276.78" y1="325.66" x2="276.82" y2="331.66" style="fill:none;stroke:#666;stroke-miterlimit:10;stroke-width:2px"/><line x1="276.85" y1="336.52" x2="277.01" y2="363.25" style="fill:none;stroke:#666;stroke-miterlimit:10;stroke-width:2px;stroke-dasharray:9.719016075134277,4.859508037567139"/><line x1="277.02" y1="365.68" x2="277.06" y2="371.68" style="fill:none;stroke:#666;stroke-miterlimit:10;stroke-width:2px"/><line x1="264.18" y1="369.48" x2="264.18" y2="331.22" style="fill:none;stroke:#666;stroke-linejoin:round;stroke-width:2px;stroke-dasharray:12,6"/><polygon points="272.36 362.85 270.89 361.49 264.18 368.71 257.46 361.49 256 362.85 264.18 371.65 272.36 362.85" style="fill:#666"/><polygon points="272.36 337.84 270.89 339.21 264.18 331.98 257.46 339.21 256 337.84 264.18 329.05 272.36 337.84" style="fill:#666"/></g></svg>