<svg xmlns="http://www.w3.org/2000/svg" viewBox="0 0 1920 1080"><defs><style>.cls-1,.cls-2,.cls-3,.cls-4,.cls-5,.cls-6,.cls-7,.cls-8,.cls-9{fill:none;}.cls-1,.cls-2,.cls-4,.cls-5,.cls-6,.cls-7,.cls-8,.cls-9{stroke:#000;stroke-linecap:round;stroke-linejoin:round;}.cls-1{stroke-width:3px;}.cls-4,.cls-7,.cls-8,.cls-9{stroke-width:0.5px;}.cls-5{stroke-width:2px;}.cls-6{stroke-width:0.75px;}.cls-7{stroke-dasharray:5.51 5.51;}.cls-8{stroke-dasharray:6;}.cls-9{stroke-dasharray:4;}</style></defs><g id="Layer_2" data-name="Layer 2"><polyline id="Axo_Line_Conc" data-name="Axo Line Conc" class="cls-1" points="1696.12 236.11 1263.09 486.12 1263.09 336.11 1219.78 311.11 1003.26 436.12 1046.57 461.12 1263.09 336.12"/><polyline id="Axo_Line_Conc-2" data-name="Axo Line Conc" class="cls-1" points="1046.57 461.12 1046.57 611.09 1133.17 661.11"/><polyline id="Axo_Line_Conc-3" data-name="Axo Line Conc" class="cls-1" points="1003.26 436.12 959.97 461.13 959.97 611.11 1111.54 698.62"/><line id="Axo_Line" data-name="Axo Line" class="cls-2" x1="1250.43" y1="493.43" x2="1065.85" y2="600"/><polyline id="Axo_Line_Conc-4" data-name="Axo Line Conc" class="cls-1" points="1263.09 486.12 1349.7 536.13 1149.42 651.76"/><path id="Axo_Line_Conc-5" data-name="Axo Line Conc" class="cls-1" d="M1349.7,536.13c13.39,19,0,50,0,50l-216.52,125s11.28-29.4,0-50"/><line id="Axo_Line-2" data-name="Axo Line" class="cls-2" x1="972.04" y1="604.16" x2="972.04" y2="486.12"/><line id="Axo_Line-3" data-name="Axo Line" class="cls-2" x1="984.24" y1="597.03" x2="984.24" y2="511.11"/><polyline id="Axo_Line_Conc-6" data-name="Axo Line Conc" class="cls-1" points="1219.77 486.11 1219.77 386.11 1089.87 461.11 1089.87 561.11 1219.77 486.11"/><circle class="cls-3" cx="1077.23" cy="471.11" r="2.5"/><circle class="cls-3" cx="1064.24" cy="478.61" r="2.5"/><circle class="cls-3" cx="1077.23" cy="486.11" r="2.5"/><circle class="cls-3" cx="1064.24" cy="493.61" r="2.5"/><circle class="cls-3" cx="1077.23" cy="501.11" r="2.5"/><circle class="cls-3" cx="1064.24" cy="508.61" r="2.5"/><circle class="cls-3" cx="1077.23" cy="516.11" r="2.5"/><circle class="cls-3" cx="1064.24" cy="523.61" r="2.5"/><circle class="cls-3" cx="1077.23" cy="531.11" r="2.5"/><circle class="cls-3" cx="1064.24" cy="538.61" r="2.5"/><circle class="cls-3" cx="1077.23" cy="546.11" r="2.5"/><circle class="cls-3" cx="1064.24" cy="553.61" r="2.5"/><circle class="cls-3" cx="1077.23" cy="561.11" r="2.5"/><circle class="cls-3" cx="1064.24" cy="568.61" r="2.5"/><circle class="cls-3" cx="1246.67" cy="376.62" r="2.5"/><circle class="cls-3" cx="1233.68" cy="384.12" r="2.5"/><circle class="cls-3" cx="1246.67" cy="391.62" r="2.5"/><circle class="cls-3" cx="1233.68" cy="399.12" r="2.5"/><circle class="cls-3" cx="1246.67" cy="406.62" r="2.5"/><circle class="cls-3" cx="1233.68" cy="414.12" r="2.5"/><circle class="cls-3" cx="1246.67" cy="421.62" r="2.5"/><circle class="cls-3" cx="1233.68" cy="429.12" r="2.5"/><circle class="cls-3" cx="1246.67" cy="436.62" r="2.5"/><circle class="cls-3" cx="1233.68" cy="444.12" r="2.5"/><circle class="cls-3" cx="1246.67" cy="451.62" r="2.5"/><circle class="cls-3" cx="1233.68" cy="459.12" r="2.5"/><circle class="cls-3" cx="1246.67" cy="466.62" r="2.5"/><circle class="cls-3" cx="1233.68" cy="474.12" r="2.5"/><polyline id="Axo_Line_Conc-7" data-name="Axo Line Conc" class="cls-4" points="1081.78 613.75 1133.17 643.42 1150.72 633.29 1307.38 542.84 1253.55 511.76"/><polyline id="Axo_Line_Conc-8" data-name="Axo Line Conc" class="cls-4" points="1299.47 527.61 1133.17 623.62 1100.49 604.76"/><polyline id="Axo_Line_Conc-9" data-name="Axo Line Conc" class="cls-4" points="1046.57 436.11 1046.57 386.11 1219.77 286.11 1219.77 336.11"/><polyline id="Axo_Line_Conc-10" data-name="Axo Line Conc" class="cls-4" points="1035.75 429.12 1035.75 379.09 1209.37 279.49 1209.37 325.6"/><polyline id="Axo_Line_Conc-11" data-name="Axo Line Conc" class="cls-4" points="992.72 430 986.87 426.62 1030.51 401.43"/><line id="Axo_Line-4" data-name="Axo Line" class="cls-4" x1="1038.5" y1="396.87" x2="1042.43" y2="394.6"/><polyline id="Axo_Line_Conc-12" data-name="Axo Line Conc" class="cls-4" points="1052.11 388.85 1085.97 369.29 1190.98 308.66 1201.11 314.51"/><line id="Axo_Line-5" data-name="Axo Line" class="cls-4" x1="1140.59" y1="606.85" x2="1327.36" y2="499.02"/><line id="Axo_Line-6" data-name="Axo Line" class="cls-4" x1="1052.11" y1="643.42" x2="1243.24" y2="533.07"/><path class="cls-5" d="M950.41,516.65c-7.83-2.08-15.38-.3-18.45,4.43-3.52,5.4,0,12.74,2.62,18,3.28,6.77,9.23,7.12,12.14,14.32a22,22,0,0,1,1.54,7.67"/><path class="cls-5" d="M949.06,588.07A89.11,89.11,0,0,0,960,642.14"/></g><g id="Layer_3" data-name="Layer 3"><polyline id="Axo_Line_Conc-13" data-name="Axo Line Conc" class="cls-2" points="1306.41 411.11 1392.97 361.14 1392.97 311.11 1436.26 286.12 1479.57 286.12 1522.87 311.12 1587.85 273.6 1512.33 230"/><polyline id="Axo_Line_Conc-14" data-name="Axo Line Conc" class="cls-5" points="1306.37 386.11 1372.59 347.88 1372.59 299.98 1523.79 212.69"/><polyline id="Axo_Line_Conc-15" data-name="Axo Line Conc" class="cls-5" points="1328.05 348.61 1349.71 336.11 1349.71 286.09 1436.3 236.1 1436.3 211.11 1566.18 136.13"/><polyline id="Axo_Line_Conc-16" data-name="Axo Line Conc" class="cls-5" points="1349.69 348.75 1360.8 342.34 1360.8 292.51 1478.99 224.27 1478.99 211.13 1566.07 160.85"/><polyline id="Axo_Line_Conc-17" data-name="Axo Line Conc" class="cls-2" points="1355.01 302.9 1355.01 289.54 1445.97 237.02 1445.97 211.09 1489.04 186.22"/><polyline id="Axo_Line_Conc-18" data-name="Axo Line Conc" class="cls-5" points="1306.37 336.11 1328.05 323.6 1328.05 273.61 1392.97 236.12 1392.97 161.11 1436.3 136.09 1436.3 86.08 1393.02 61.09 1393.02 36.11 1459.2 -2.1"/><polyline id="Axo_Line_Conc-19" data-name="Axo Line Conc" class="cls-5" points="1306.41 311.11 1320.63 302.9 1320.63 252.9 1373.77 222.22 1373.77 150 1417.07 125 1417.07 97.22 1425.73 92.22"/><polyline id="Axo_Line_Conc-20" data-name="Axo Line Conc" class="cls-5" points="1447.12 79.88 1479.62 61.11 1479.62 11.08 1522.91 -13.91"/><polyline id="Axo_Line_Conc-21" data-name="Axo Line Conc" class="cls-2" points="1337.23 306.85 1337.23 279.47 1401.22 242.52 1401.22 165.6 1495.61 111.11 1495.61 20.34 1543.46 -7.28"/><line id="Axo_Line-7" data-name="Axo Line" class="cls-5" x1="1498.86" y1="222.22" x2="1489.04" y2="216.55"/><line id="Axo_Line-8" data-name="Axo Line" class="cls-5" x1="1473.69" y1="207.68" x2="1468.78" y2="204.85"/><line id="Axo_Line-9" data-name="Axo Line" class="cls-2" x1="1452.32" y1="195.35" x2="1412.26" y2="172.22"/><polyline id="Axo_Line_Conc-22" data-name="Axo Line Conc" class="cls-2" points="1366.07 145.55 1306.41 111.11 1349.71 86.11 1306.41 61.11 1393.01 11.11 1393.01 -7.37"/><g id="Axo_Extrusion" data-name="Axo Extrusion"><g id="Axo_Surface" data-name="Axo Surface"><polygon id="Axo_panel" data-name="Axo panel" class="cls-4" points="1464.36 452.02 1471.8 447.72 1471.8 456.62 1464.36 460.92 1464.36 452.02"/></g></g><g id="Axo_Extrusion-2" data-name="Axo Extrusion"><g id="Axo_Surface-2" data-name="Axo Surface"><polygon id="Axo_panel-2" data-name="Axo panel" class="cls-4" points="1445.91 454.59 1464.81 443.68 1464.81 452.58 1445.91 463.49 1445.91 454.59"/></g></g><g id="Axo_Extrusion-3" data-name="Axo Extrusion"><g id="Axo_Surface-3" data-name="Axo Surface"><polygon id="Axo_panel-3" data-name="Axo panel" class="cls-4" points="1476.46 460.03 1484.79 455.22 1484.79 464.12 1476.46 468.93 1476.46 460.03"/></g></g><g id="Axo_Extrusion-4" data-name="Axo Extrusion"><g id="Axo_Surface-4" data-name="Axo Surface"><polygon id="Axo_panel-4" data-name="Axo panel" class="cls-4" points="1461.23 462.42 1479.25 452.02 1479.25 460.92 1461.23 471.32 1461.23 462.42"/></g></g><g id="Axo_Extrusion-5" data-name="Axo Extrusion"><g id="Axo_Surface-5" data-name="Axo Surface"><polygon id="Axo_panel-5" data-name="Axo panel" class="cls-4" points="1470.42 469.44 1489.93 458.18 1489.93 467.09 1470.42 478.35 1470.42 469.44"/></g></g><g id="Axo_Extrusion-6" data-name="Axo Extrusion"><g id="Axo_Surface-6" data-name="Axo Surface"><polygon id="Axo_panel-6" data-name="Axo panel" class="cls-4" points="1430.91 453.16 1456.07 438.63 1456.07 447.54 1430.91 462.06 1430.91 453.16"/></g><g id="Axo_Surface-7" data-name="Axo Surface"><polygon id="Axo_panel-7" data-name="Axo panel" class="cls-4" points="1498.71 463.08 1473.4 477.69 1473.4 486.6 1498.71 471.99 1498.71 463.08"/><polygon id="Axo_panel-8" data-name="Axo panel" class="cls-4" points="1473.4 477.69 1430.91 453.16 1430.91 462.06 1473.4 486.6 1473.4 477.69"/></g></g><g id="Axo_Extrusion-7" data-name="Axo Extrusion"><g id="Axo_Surface_" data-name="Axo Surface*"><polygon id="Axo_panel-9" data-name="Axo panel" class="cls-4" points="1349.71 477.21 1422.41 435.24 1422.41 444.14 1349.71 486.11 1349.71 477.21"/><rect id="Axo_panel-10" data-name="Axo panel" class="cls-4" x="1422.41" y="435.23" width="27.77" height="8.9"/><polygon id="Axo_panel-11" data-name="Axo panel" class="cls-4" points="1450.18 435.24 1522.89 477.21 1522.89 486.12 1450.18 444.14 1450.18 435.24"/></g><g id="Axo_Surface-8" data-name="Axo Surface"><polygon id="Axo_panel-12" data-name="Axo panel" class="cls-4" points="1522.89 477.21 1436.31 527.2 1436.31 536.11 1522.89 486.12 1522.89 477.21"/><polygon id="Axo_panel-13" data-name="Axo panel" class="cls-4" points="1436.31 527.2 1349.71 477.2 1349.71 486.11 1436.31 536.11 1436.31 527.2"/></g></g><line id="Axo_Line-10" data-name="Axo Line" class="cls-5" x1="1089.87" y1="786.13" x2="1920" y2="306.85"/><line id="Axo_Line-11" data-name="Axo Line" class="cls-1" x1="1089.87" y1="811.11" x2="1890.67" y2="348.77"/><line id="Axo_Line-12" data-name="Axo Line" class="cls-4" x1="1106.15" y1="536.32" x2="1207.53" y2="477.79"/><line id="Axo_Line-13" data-name="Axo Line" class="cls-4" x1="1115.88" y1="521.11" x2="1249.57" y2="443.93"/><line id="Axo_Line-14" data-name="Axo Line" class="cls-4" x1="1207.14" y1="415.71" x2="1207.14" y2="449.12"/><line id="Axo_Line-15" data-name="Axo Line" class="cls-4" x1="1194.58" y1="388.85" x2="1194.58" y2="441.62"/><line id="Axo_Line-16" data-name="Axo Line" class="cls-4" x1="1182.73" y1="466.62" x2="1182.73" y2="421.62"/><line id="Axo_Line-17" data-name="Axo Line" class="cls-4" x1="1170.57" y1="478.61" x2="1170.57" y2="458.18"/><line id="Axo_Line-18" data-name="Axo Line" class="cls-4" x1="1107.58" y1="466.62" x2="1137.39" y2="449.41"/><line id="Axo_Line-19" data-name="Axo Line" class="cls-4" x1="1114.94" y1="468.61" x2="1128.81" y2="460.6"/><line id="Axo_Line-20" data-name="Axo Line" class="cls-4" x1="1133.17" y1="458.18" x2="1144.22" y2="451.8"/><line id="Axo_Line-21" data-name="Axo Line" class="cls-4" x1="1109.5" y1="477.79" x2="1129.38" y2="466.31"/><line id="Axo_Line-22" data-name="Axo Line" class="cls-4" x1="1133.97" y1="464.6" x2="1145.1" y2="458.18"/><line id="Axo_Line-23" data-name="Axo Line" class="cls-4" x1="1109.5" y1="484.49" x2="1122.21" y2="477.14"/><line id="Axo_Line-24" data-name="Axo Line" class="cls-4" x1="1128.81" y1="473.61" x2="1145.49" y2="463.98"/><line id="Axo_Line-25" data-name="Axo Line" class="cls-4" x1="1109.5" y1="491.84" x2="1117.63" y2="487.14"/><line id="Axo_Line-26" data-name="Axo Line" class="cls-4" x1="1122.49" y1="484.34" x2="1135.43" y2="476.87"/><line id="Axo_Line-27" data-name="Axo Line" class="cls-4" x1="1140.59" y1="473.61" x2="1145.62" y2="470.7"/><line id="Axo_Line-28" data-name="Axo Line" class="cls-4" x1="1109.5" y1="499.02" x2="1131.09" y2="486.55"/><line id="Axo_Line-29" data-name="Axo Line" class="cls-4" x1="1137.79" y1="482.69" x2="1146.27" y2="477.79"/><line id="Axo_Line-30" data-name="Axo Line" class="cls-4" x1="1109.5" y1="507.69" x2="1140.69" y2="489.67"/><line id="Axo_Line-31" data-name="Axo Line" class="cls-4" x1="1035.75" y1="476.62" x2="1035.75" y2="590.97"/><line id="Axo_Line-32" data-name="Axo Line" class="cls-6" x1="1030.51" y1="473.61" x2="1030.51" y2="571.12"/><line id="Axo_Line-33" data-name="Axo Line" class="cls-1" x1="979.24" y1="649.96" x2="687.15" y2="818.6"/><path class="cls-1" d="M953.06,581.59c-4.54-3.19-16.1-10.41-24.85-6.54-9.84,4.35-3.21,25.47-5.66,57.68a211.53,211.53,0,0,1-7.71,42.61"/><path class="cls-1" d="M953.11,568.65c-1.7-1.27-12.46-9.09-25.39-5.8-3.12.8-8,1.65-11.05,5.8-3.59,4.84-3.47,12.12,0,19"/><path class="cls-1" d="M928.12,599.3a106.58,106.58,0,0,1,5.33,70.32"/><circle class="cls-2" cx="1103.33" cy="259.91" r="8.39"/><g id="Axo_Line-34" data-name="Axo Line"><line class="cls-4" x1="1103.33" y1="322.94" x2="1103.33" y2="319.94"/><line class="cls-7" x1="1103.33" y1="314.43" x2="1103.33" y2="284.11"/><line class="cls-4" x1="1103.33" y1="281.36" x2="1103.33" y2="278.36"/></g><circle class="cls-8" cx="1105.88" cy="258.03" r="1.06"/><line id="Axo_Line-35" data-name="Axo Line" class="cls-4" x1="1119" y1="251.52" x2="1292.17" y2="151.54"/><line id="Axo_Line-36" data-name="Axo Line" class="cls-4" x1="1117.3" y1="248.93" x2="1219.13" y2="159.33"/><line class="cls-9" x1="1216.97" y1="125.42" x2="1232.55" y2="106.85"/><line class="cls-4" x1="1115.18" y1="246.67" x2="1216" y2="126.52"/><line id="Axo_Line-37" data-name="Axo Line" class="cls-4" x1="1112.7" y1="244.81" x2="1174.64" y2="137.54"/><line id="Axo_Line-38" data-name="Axo Line" class="cls-4" x1="1109.94" y1="243.41" x2="1143.49" y2="151.52"/><line class="cls-9" x1="1119.36" y1="172.26" x2="1123.03" y2="151.43"/><line class="cls-4" x1="1106.97" y1="242.52" x2="1119.36" y2="172.26"/><line class="cls-9" x1="1103.9" y1="90.55" x2="1103.9" y2="76.52"/><line class="cls-4" x1="1103.9" y1="242.15" x2="1103.9" y2="90.55"/><line id="Axo_Line-39" data-name="Axo Line" class="cls-4" x1="1100.8" y1="242.32" x2="1084.74" y2="151.23"/><line id="Axo_Line-40" data-name="Axo Line" class="cls-4" x1="1097.79" y1="243.03" x2="1061.11" y2="142.25"/><line id="Axo_Line-41" data-name="Axo Line" class="cls-4" x1="1094.94" y1="244.25" x2="1048.69" y2="164.15"/><line class="cls-9" x1="1015.75" y1="154.67" x2="1007.56" y2="144.9"/><line class="cls-4" x1="1092.34" y1="245.94" x2="1015.75" y2="154.67"/><line id="Axo_Line-42" data-name="Axo Line" class="cls-4" x1="1090.09" y1="248.06" x2="1019.23" y2="188.61"/><line id="Axo_Line-43" data-name="Axo Line" class="cls-4" x1="1088.23" y1="250.54" x2="989.07" y2="193.29"/><line id="Axo_Line-44" data-name="Axo Line" class="cls-4" x1="1086.83" y1="253.31" x2="999.91" y2="221.67"/><line id="Axo_Line-45" data-name="Axo Line" class="cls-4" x1="1085.93" y1="256.27" x2="979.41" y2="237.49"/><line class="cls-9" x1="966.75" y1="259.35" x2="932.24" y2="259.35"/><line class="cls-4" x1="1085.57" y1="259.35" x2="966.75" y2="259.35"/><line id="Axo_Line-46" data-name="Axo Line" class="cls-4" x1="1085.74" y1="262.44" x2="945.77" y2="287.12"/><line id="Axo_Line-47" data-name="Axo Line" class="cls-4" x1="1086.44" y1="265.46" x2="908.43" y2="335.32"/><line id="Axo_Line-48" data-name="Axo Line" class="cls-4" x1="1087.66" y1="268.31" x2="945.8" y2="351.52"/></g></svg>